<?xml version="1.0" standalone="no"?>
<!DOCTYPE svg PUBLIC "-//W3C//DTD SVG 1.1//EN" "http://www.w3.org/Graphics/SVG/1.1/DTD/svg11.dtd" >
<svg>
<metadata>
Created by FontForge 20090622 at Fri Feb 22 10:58:14 2019
 By ffonts
</metadata>
<defs>
<font id="Cryptik" horiz-adv-x="833" >
  <font-face 
    font-family="Cryptik"
    font-weight="400"
    font-stretch="normal"
    units-per-em="1000"
    panose-1="2 0 0 0 0 0 0 0 0 0"
    ascent="750"
    descent="-250"
    x-height="592"
    cap-height="749"
    bbox="-10 -215 631 851"
    underline-thickness="50"
    underline-position="-50"
    unicode-range="U+000D-U+FB02"
  />
<missing-glyph horiz-adv-x="350" 
 />
    <glyph glyph-name=".notdef" horiz-adv-x="350" 
 />
    <glyph glyph-name="NULL" horiz-adv-x="0" 
 />
    <glyph glyph-name="NULL" horiz-adv-x="0" 
 />
    <glyph glyph-name="nonmarkingreturn" unicode="&#xd;" horiz-adv-x="350" 
 />
    <glyph glyph-name="space" unicode=" " horiz-adv-x="250" 
 />
    <glyph glyph-name="four" unicode="4" horiz-adv-x="389" 
d="M339 741q0 -2 -2 -35l-5 -86l-7 -120l-8 -137l-8 -137.5l-7 -120t-5 -84.5t-2 -33t-1 -2h-1h-11h-1q-1 0 -1 1v1q0 8 -2 44t-4.5 89.5t-6 119t-7.5 132.5l-7.5 130.5l-6.5 113.5t-5.5 81.5t-3.5 33.5q-3 6 -13 10.5t-15 6.5l2 1h118q2 0 5 -1q5 -3 5 -8zM56 468q0 9 12 9
h185q13 0 13 -9q0 -4 -4 -14t-9 -10l-185 14q-12 0 -12 10zM289 709q-8 -22 -27.5 -48.5t-44.5 -54t-52.5 -53.5l-50 -46l-37.5 -32.5l-15 -12.5q-1 -1 -2 -1h-1l-8 8l-1 1l1 1q9 6 33 36t50 71.5t47.5 87.5t24.5 82q0 1 3 1q5 0 18 -4.5l27 -9.5q16 -6 34 -14q0 -1 1 -2
q0 -1 0.5 -1.5t0.5 -2.5q0 -4 -1 -6z" />
    <glyph glyph-name="five" unicode="5" horiz-adv-x="458" 
d="M179 737q0 -2 -2 -27.5l-5 -66.5l-7 -92.5l-8 -104.5q-1 0 -8.5 -1t-17 -2t-18.5 -1.5t-13 -0.5q-4 52 -7.5 102.5l-6.5 90.5t-5.5 65.5t-3.5 27.5q-4 8 -15.5 12.5t-11.5 5.5h1h119q1 0 5 -1t4 -7zM386 469q21 -78 21 -141q0 -68 -19.5 -118.5t-49 -87.5t-63.5 -61.5
t-63.5 -38.5t-49 -20.5l-19.5 -6.5l-1 -2h-1h-11h-1q-1 0 -1 1v1l-1 1q0 3 14 10t35 21.5t45 36t45 53.5t35 74.5t14 98.5q0 37 -7 78.5t-23 90.5q-1 4 -5.5 7t-9.5 5.5t-9 4l-4 1.5h1h119q1 0 4 -1t5 -7zM399 737q9 -23 9 -46q0 -27 -9 -51.5t-19.5 -43.5t-19.5 -30.5
t-9 -12.5l-1 -2h-12h-1v1q0 9 5 23t5 34q0 22 -10 51t-40 67q-2 2 -6.5 5.5t-9 6t-8.5 4.5t-4 1q0 1 1 1h1h119q1 0 3 -1q3 -2 6 -7zM334 736q0 -10 -13 -10l-185 -14q-5 0 -8.5 9.5t-3.5 14.5q0 9 12 9h185q13 0 13 -9zM338 468q0 -10 -13 -10l-185 -14q-5 0 -9 10t-4 14
q0 9 13 9h185q13 0 13 -9z" />
    <glyph glyph-name="six" unicode="6" horiz-adv-x="462" 
d="M78 468q0 9 13 9h236q13 0 13 -9q0 -4 -4 -14t-9 -10l-236 14q-13 0 -13 10zM401 469q5 -19 8.5 -39t2.5 -41q-4 -90 -30 -162t-56 -123t-54.5 -79.5t-25.5 -31.5h-11l-1 1q0 5 16.5 32.5t36 69t36 93.5t16.5 107q0 21 -3 49.5t-10.5 55.5t-20.5 48t-33 27h-1l1 1h1h119
q1 0 3 -1q3 -2 6 -7zM395 741q9 -23 9 -45q0 -27 -9 -51.5t-19.5 -43.5t-19.5 -30.5t-9 -12.5t-1 -2v-1h-12l-1 1q0 9 5 23t5 34q0 8 -3 26t-11 39t-23.5 40.5t-40.5 30.5l2 1h119q1 -1 3 -2q3 -2 6 -7zM330 740q0 -9 -13 -9l-185 -15q-5 0 -8.5 10t-3.5 14q0 10 12 10h185
q13 0 13 -10zM76 741q2 6 5 8q2 1 4 1h119l2 -1l-15.5 -6t-12.5 -11q-20 -85 -28 -157.5t-8 -134.5q0 -113 16.5 -192.5t36 -131.5t36 -81t16.5 -41q0 -1 -1 -1h-1h-11q-1 2 -15 19.5t-34 50t-44 79t-44 106t-33.5 131.5t-13.5 156q0 48 6 99.5t20 106.5z" />
    <glyph glyph-name="seven" unicode="7" horiz-adv-x="449" 
d="M59 742q1 5 6 7q2 1 3 1h119h1l-12 -6q-10 -5 -16 -11q-30 -38 -40 -67.5t-10 -52.5q0 -19 4 -32.5t6 -22.5q0 -1 -1 -2h-1h-11h-1q-1 0 -1 3q0 1 -8.5 12.5t-19 30t-19 43t-8.5 50.5q0 12 2 23.5t7 23.5zM123 741q0 9 12 9h185q13 0 13 -9q0 -4 -4 -14t-9 -10l-185 15
q-12 0 -12 9zM377 742q22 -87 22 -169q0 -90 -21.5 -168t-54.5 -142.5t-71 -115t-71 -86t-55 -55t-23 -21.5h-11h-1q-1 0 -1 1q0 9 16 26.5t39.5 46t51.5 68.5t51.5 94t39.5 123.5t16 157.5q0 52 -6.5 109t-21.5 122q-1 3 -5.5 6t-10 5t-9.5 4l-4 2h1h120q1 0 4 -1t5 -7z
M187 480q0 9 12 9h155q13 0 13 -9q0 -5 -4 -15.5t-9 -10.5l-155 16q-12 0 -12 10z" />
    <glyph glyph-name="eight" unicode="8" horiz-adv-x="459" 
d="M382 474q14 -53 20.5 -98t6.5 -84q0 -59 -12.5 -104.5t-31 -78t-40 -54.5t-40 -35t-31 -19l-12.5 -6q0 -1 -1 -2h-1h-11h-1q-1 0 -1 1q-1 1 -1 2q0 4 15 18t32.5 41.5t32.5 72t15 110.5q0 45 -9 101.5t-32 125.5q-2 7 -12.5 11l-15.5 6l2 1h118q2 0 4 -1q3 -1 6 -8z
M349 473q0 -9 -13 -9l-185 -15q-5 0 -8.5 10t-3.5 14q0 10 12 10h185q13 0 13 -10zM76 474q2 6 5 8q2 1 4 1h119l1 -1q-7 -3 -13 -6q-5 -2 -9.5 -5t-5.5 -6q-21 -66 -30 -119t-9 -97q0 -69 17 -115.5t37.5 -75.5t37.5 -43.5t17 -18.5t-2.5 -3.5t-0.5 0.5h-11h-1q-1 0 -1 2
q0 3 -13.5 10t-33.5 21t-43.5 36.5t-43.5 55.5t-33.5 78.5t-13.5 105.5q0 37 6 79.5t20 92.5zM346 741q0 -9 -13 -9l-185 -15q-5 0 -8.5 10t-3.5 14q0 9 12 9h185q13 0 13 -9zM70 742q2 6 5 7t4 1h119h1l-4 -1.5t-8.5 -4t-9 -5.5t-5.5 -6q-14 -35 -20 -63.5t-6 -51.5
q0 -42 15 -69t32.5 -43.5t32.5 -24.5t15 -12q-1 -1 -1 -2.5t-2 -0.5h-11h-1q-1 0 -1 2l-12.5 2t-31 8t-40.5 18t-40.5 32t-31 50t-12.5 73q0 42 13 91zM371 742q13 -51 13 -91q0 -43 -12.5 -73t-31 -50t-40 -32t-40 -18t-31 -8l-12.5 -2q0 -1 -1 -2h-1h-12h-1q-2 0 -2 3
q0 4 15 12t33 24.5t33 44t15 69.5q0 9 -1.5 28.5t-7 40.5t-16 38.5t-28.5 22.5q-1 0 -1 1h1h119q1 0 4 -1t5 -7z" />
    <glyph glyph-name="nine" unicode="9" horiz-adv-x="466" 
d="M338 741q0 -9 -13 -9l-185 -15q-5 0 -8.5 10t-3.5 14q0 9 12 9h185q13 0 13 -9zM63 742q2 6 5 7t4 1h119h1q-8 -3 -13 -6q-12 -5 -15 -11q-14 -35 -20 -63.5t-6 -51.5q0 -42 15 -69t32.5 -43.5t32.5 -24.5t15 -12q0 -1 -1 -2.5t-2 -0.5h-11h-1q-1 0 -1 2l-12.5 2t-31 8
t-40 18t-40 32t-31 50t-12.5 73q0 40 13 91zM395 741q11 -45 16 -86.5t5 -81.5q0 -90 -21.5 -168t-54.5 -142.5t-71 -115.5t-71 -86.5t-55 -55t-23 -21.5h-11h-1q-1 0 -1 3q0 10 16 27.5t39.5 46t51.5 68t51.5 93.5t39.5 123t16 156q0 52 -6.5 109t-21.5 122q-2 7 -12.5 11
l-15.5 6l2 1h118q2 0 4 -1q5 -2 6 -8z" />
    <glyph glyph-name="A" unicode="A" horiz-adv-x="423" 
d="M168 741q0 -2 -2.5 -34.5t-5.5 -85l-7 -119l-8 -136l-7.5 -136l-6.5 -118.5l-5 -84l-2 -32l-1 -2h-11h-1q-1 0 -2.5 31t-4.5 82t-6 116.5t-7 134t-7.5 134.5l-6.5 118.5t-5.5 85.5t-3.5 36q-5 6 -14.5 10.5l-13.5 6.5h1h118q1 0 5 -1t4 -7zM341 741q23 -65 32.5 -133
t9.5 -136q0 -93 -11.5 -178.5t-26 -151.5t-26 -106l-11.5 -40l-1 -2h-1h-12q-1 0 -1 4q0 11 5 36t10.5 63.5t10.5 89.5t5 114q0 88 -17.5 195.5t-65.5 235.5q-2 7 -11.5 11t-15.5 6h1h117q2 0 4 -1q4 -2 5 -7zM278 740q0 -3 -2.5 -6.5t-7.5 -3.5l-135 -14q-4 0 -6.5 10.5
t-2.5 13.5q0 9 9 9h135q10 0 10 -9zM336 478q0 -10 -12 -10l-183 -14q-6 0 -9.5 9.5t-3.5 14.5q0 3 3.5 6.5t9.5 3.5h183q5 0 8.5 -3.5t3.5 -6.5z" />
    <glyph glyph-name="B" unicode="B" horiz-adv-x="409" 
d="M116 -6q-4 0 -4 1l37 33t56 63t51.5 92.5t22.5 119.5q0 14 -3 42.5t-10 58t-20 53t-32 26.5q-1 0 -1 1h1h118q1 0 3 -1q3 -2 6 -7q23 -68 23 -130q0 -58 -18 -107t-45 -88t-58.5 -68.5t-58.5 -49t-45.5 -29.5l-18.5 -10h-4zM259 468q0 -8 -8 -8l-119 -12q-3 0 -5.5 8.5
t-2.5 11.5q0 10 8 10h119q8 0 8 -10zM158 741q0 -2 -2 -34.5l-5 -85l-6.5 -119l-7.5 -136l-8 -136t-6.5 -118.5t-4.5 -84l-2 -32q0 -2 -2 -2h-1l-10 -1q-1 0 -3 31t-5 82t-6.5 116.5l-7 134l-7 135t-7 119t-6 85.5t-3.5 36q-3 6 -13 10.5t-15 6.5h1h118q1 0 5 -1t4 -7z
M333 741q14 -39 20 -70.5t6 -57.5q0 -47 -17 -75t-42 -43t-53.5 -19.5t-50.5 -4.5q-18 0 -29.5 1.5t-12.5 1.5q0 -1 -1 -2v-1h-10h-2q-1 0 -1 3l48 14t42.5 18.5t30.5 30.5t12 50q0 26 -9.5 61.5t-30.5 83.5q-3 7 -13 11l-15 6h1h118q1 0 3 -1q3 -2 6 -7zM270 740
q0 -3 -3.5 -6.5t-6.5 -3.5l-136 -14q-4 0 -6.5 10.5t-2.5 13.5q0 9 9 9h136q3 0 6.5 -2.5t3.5 -6.5z" />
    <glyph glyph-name="C" unicode="C" horiz-adv-x="416" 
d="M312 740q0 -10 -12 -10l-184 -14q-5 0 -8.5 9.5t-3.5 14.5q0 4 3.5 6.5t8.5 2.5h184q12 0 12 -9zM62 741q1 6 4.5 7t4.5 1h117h1q-6 -2 -15.5 -6t-11.5 -11q-15 -64 -21.5 -120.5t-6.5 -107.5q0 -86 15.5 -154.5t39.5 -122t51 -93t51 -67.5l39.5 -46t15.5 -27q0 -1 -1 -1
h-1h-12l-1 1t-22.5 19t-54 53t-70 85.5t-69.5 114.5t-53.5 141t-21.5 165q0 82 22 169zM377 741q9 -23 9 -51q0 -31 -8.5 -64t-19 -60.5t-19 -45.5t-8.5 -19t-1 -2h-12h-1q-1 0 -1 2q3 9 7 30.5t4 50.5q0 16 -3 40t-11 48.5t-23.5 45.5t-39.5 32h-1l1 1h118q1 0 3 -1
q3 -2 6 -7z" />
    <glyph glyph-name="D" unicode="D" horiz-adv-x="442" 
d="M171 741q0 -2 -2 -34.5l-5 -85l-6.5 -119.5t-7.5 -136.5l-7.5 -136l-6.5 -118.5l-5 -84t-2 -33t-2 -1h-1h-10h-1h-1l1 1q-1 8 -3 44t-4.5 88.5t-6.5 117.5t-7.5 131.5l-7 130t-7 113t-5.5 80.5t-3 33q-3 6 -13 10.5t-15 6.5h1h118q1 0 5 -0.5t4 -5.5v-2zM155 740
q0 4 3.5 6.5t8.5 2.5h182q14 0 14 -9q0 -3 -4 -13.5t-10 -10.5l-182 14q-5 0 -8.5 3.5t-3.5 6.5zM406 741q11 -45 16 -86.5t5 -81.5q0 -89 -21.5 -166t-53.5 -141t-69.5 -114.5t-70 -85t-55 -53.5t-24.5 -20h-9h-2l-1 1q0 9 15.5 26.5l39.5 46t51 68t51 93t39.5 122
t15.5 154.5q0 103 -28 228q-1 7 -12 11t-15 6h1h117q1 0 4.5 -1t5.5 -7z" />
    <glyph glyph-name="E" unicode="E" horiz-adv-x="409" 
d="M158 741q0 -7 -2 -42.5l-5 -89l-7 -120l-8 -134.5l-8 -133l-7 -115.5t-4.5 -81l-1.5 -30.5h-1h-12h-1q-1 0 -2.5 31t-4.5 82t-6.5 116.5l-7 134l-7 134.5l-6.5 118.5t-5.5 85.5t-3.5 35q-3 6 -13 10.5t-15 6.5h1h118q2 0 5.5 -1t3.5 -7zM304 740q0 -3 -4 -6.5t-9 -3.5
l-182 -14q-5 0 -9.5 10.5t-4.5 13.5q0 4 4.5 6.5t9.5 2.5h182q5 0 9 -2.5t4 -6.5zM101 -6q-2 10 0.5 17t0.5 7l157 -4q5 0 12 2t20 10l4 2q3 0 3 -5q0 -7 -5 -18t-9 -11h-183zM263 475q0 -9 -13 -9l-152 -15q-6 0 -10.5 10t-4.5 14q0 3 4.5 7t10.5 4h152q5 0 9 -4t4 -7z
M370 741q9 -23 9 -51q0 -31 -8.5 -64t-19 -60.5t-19 -45.5t-8.5 -19t-1 -2h-12h-1q-1 0 -1 2q3 9 7 30.5t4 50.5q0 16 -3 40t-11.5 49t-23.5 46t-40 31l1 1h118q1 0 3 -1q3 -2 6 -7zM357 54q0 -5 -0.5 -14t-2 -19t-5 -18t-9.5 -9h-95l-1 1q24 9 39 25.5t23.5 35.5t11 38.5
t2.5 35.5q0 30 -5.5 52.5t-5.5 30.5q0 2 1 2h1h12v-1q0 -1 1 -2q0 -1 5 -14t11.5 -34.5t11.5 -50t5 -59.5z" />
    <glyph glyph-name="F" unicode="F" horiz-adv-x="405" 
d="M168 741q0 -2 -2 -34.5l-5 -85.5l-6.5 -119.5t-8 -135.5t-8 -135.5l-6.5 -118.5l-5 -84l-2 -32q0 -1 -1 -2v-1h-12h-1v3q-1 8 -2.5 43.5t-4.5 88l-6.5 117.5t-7.5 131t-7.5 129.5t-6.5 113t-5.5 80.5t-3.5 33q-2 2 -6 5t-9 5l-12 6l1 1h1h117q1 0 5 -1t4 -7zM314 740
q0 -5 -4.5 -7.5t-9.5 -2.5l-181 -14q-5 0 -8.5 9.5t-3.5 14.5q0 9 12 9h181q5 0 9.5 -2.5t4.5 -6.5zM386 741q9 -23 9 -51q0 -31 -8.5 -64t-19 -60.5t-19 -45.5t-8.5 -19t-1 -2h-12h-1q-1 0 -1 2q3 9 7 30.5t4 50.5q0 16 -3 40t-11.5 49t-23.5 46t-40 31l1 1h118q1 0 3 -1
q3 -2 6 -7zM279 475q0 -9 -13 -9l-152 -15q-6 0 -10.5 10t-4.5 14q0 3 4.5 7t10.5 4h152q5 0 9 -4t4 -7z" />
    <glyph glyph-name="G" unicode="G" horiz-adv-x="391" 
d="M352 475q0 -2 -2 -31.5l-5 -77l-6.5 -107.5t-8 -122.5t-8 -122.5l-6.5 -107t-5 -75.5t-2 -29.5t-1 -2h-13h-1v2q-1 8 -2.5 41t-4.5 80.5l-6.5 105.5l-7 117.5t-7.5 116l-7 101l-5 72.5t-3 30q-3 6 -12 10t-14 6q-1 0 -1 1h1h117q2 0 5 -1q5 -2 5 -7zM361 740
q0 -3 -3.5 -14l-7 -23l-6.5 -22l-3 -10q0 -3 -2 -3h-1h-10h-1q-3 0 -1 2q-1 17 -4 29t-10.5 19t-21 9t-34.5 1q-3 -1 -1.5 1.5l4 6.5l4.5 7.5t-1 4.5h1h89q2 0 4 -1q5 -3 5 -7zM298 738q0 -3 -3.5 -6t-8.5 -3l-182 -13q-5 0 -9.5 9.5t-4.5 12.5q0 5 4.5 7.5t9.5 2.5h182
q5 0 8.5 -2.5t3.5 -7.5zM47 740q1 5 6 7q2 1 3 1h118l-14.5 -6t-11.5 -12q-30 -129 -28.5 -231t20.5 -180t49 -134.5t59 -95.5t49.5 -62t19.5 -34v-1h-1h2h-8q-8 0 -8 2l-15.5 14t-40 40t-55 64.5t-60 87t-54 107.5t-38.5 127t-13.5 145t21.5 161z" />
    <glyph glyph-name="H" unicode="H" horiz-adv-x="408" 
d="M158 741q0 -2 -2 -34.5l-5 -85l-6.5 -119l-7.5 -136l-7.5 -136l-6.5 -118.5l-5 -84l-2 -32q0 -2 -2 -2h-1h-10h-1q-1 0 -1 1v1q0 8 -2 43.5t-4.5 88t-6 117.5l-7 131t-7.5 129.5l-7 113l-5 80.5t-3 33q-4 6 -14 10.5t-15 6.5h1h118q1 0 5 -1t4 -7zM378 741q0 -2 -2 -34.5
l-5 -85l-7 -119l-8 -136l-8 -136l-7 -118.5l-5 -84l-2 -32q0 -1 -1 -2h-11h-1l-2 31t-4.5 82.5t-6 117l-7 134t-7.5 134.5l-7 118.5t-6 85.5t-4 35q-3 6 -12.5 10.5t-15.5 6.5h2h118q1 0 5 -1t4 -7zM332 468q0 -9 -14 -9l-182 -14q-5 0 -8.5 9.5t-3.5 13.5q0 10 12 10h182
q14 0 14 -10z" />
    <glyph glyph-name="I" unicode="I" horiz-adv-x="223" 
d="M178 741q0 -2 -2 -34.5l-5 -85l-7 -119l-8 -136l-7.5 -136t-7 -118.5l-5.5 -84l-2 -32l-1 -2h-12h-1l-2 31t-4.5 82t-6 116.5l-7 134l-7 134.5l-6.5 118.5t-5.5 85.5t-3.5 36q-5 6 -14 10.5t-14 6.5h1h118q1 0 5 -1t4 -7z" />
    <glyph glyph-name="J" unicode="J" horiz-adv-x="354" 
d="M40 741q0 6 4 7t5 1h89h2q-2 0 -2 -2q0 -3 4.5 -9t4.5 -8q0 -1 -1 -1h-16q-32 0 -42 -13.5t-12 -44.5v-1v-1q-1 0 -2 1h-10h-2q-1 0 -1 1t-3 11t-7 22l-7.5 23t-3.5 14zM103 740q0 4 3.5 6.5t8.5 2.5h139q12 0 12 -9q0 -3 -3.5 -13.5t-8.5 -10.5l-139 14q-5 0 -8.5 3.5
t-3.5 6.5zM310 741q13 -49 18.5 -95t5.5 -90q0 -86 -18.5 -161t-46 -137t-60 -111t-60 -83t-46.5 -52t-20 -19h-11h-1q-1 0 -1 1q0 9 12.5 26l31.5 44t41.5 64t41.5 87.5t31.5 115t12.5 144.5q0 56 -7.5 120t-24.5 137q-1 7 -11 11t-16 6h2h117q1 0 4.5 -1t4.5 -7z" />
    <glyph glyph-name="K" unicode="K" horiz-adv-x="450" 
d="M341 -14q-3 0 -3 2q0 12 3 33.5t3 48.5q0 53 -7.5 118.5t-24 125.5t-43 105t-64.5 57l1 1l1 1h105q5 -1 9 -2q7 -2 12 -6q28 -37 38.5 -91t10.5 -114q0 -51 -5.5 -101t-12.5 -89.5t-13 -64l-6 -24.5h-4zM248 470q0 -10 -8 -10l-119 -12q-3 0 -5.5 8.5t-2.5 13.5q0 8 8 8
h119q8 0 8 -8zM178 741q0 -2 -2.5 -34.5t-5.5 -85.5l-7 -119.5l-8 -135.5t-7.5 -135.5l-6.5 -118.5l-5 -84l-2 -32q-1 -1 -1 -2v-1h-1h-11q-1 -6 -2.5 22t-4.5 78t-6.5 116l-7.5 136.5t-7.5 138.5l-6.5 122.5t-5.5 89t-3.5 36.5q-4 6 -15.5 11t-11.5 6h1h117q2 0 5 -1
q5 -3 5 -7zM158 468q0 1 9 4t23 12t30 26t30 46t23 71.5t9 102.5q0 14 3 17t7 2h116h1l1 -1l-14.5 -6t-12.5 -10q-14 -28 -22.5 -57.5l-17.5 -58t-21 -54.5t-33.5 -47t-56 -36t-87.5 -21z" />
    <glyph glyph-name="L" unicode="L" horiz-adv-x="404" 
d="M167 741q0 -2 -2 -34.5l-5 -85l-6.5 -119l-7.5 -136l-7.5 -136l-6.5 -118.5l-5 -84l-2 -32q0 -1 -1 -2h-1h-12l-2 31t-4.5 82.5t-6 117l-7.5 134t-7.5 134.5t-7 118.5t-6 85.5t-3.5 35q-3 6 -12 10.5t-15 6.5h1h117q2 0 5.5 -1t3.5 -7zM88 -6h-3q0 -1 3 2q11 5 15 9
t5.5 7t1.5 4.5t3 1.5l171 -4q5 0 11 1t14 11h1q2 0 3 -7t1 -14q0 -11 -3 -11h-223zM368 3q-3 -7 -5 -8t-3 -1h-95l-1 1q24 9 39 25.5t23.5 35.5t11 38.5t2.5 35.5q0 30 -5.5 52.5t-5.5 30.5q0 2 1 2h1h12v-1q0 -1 1 -2q0 -1 5 -14t11.5 -34.5t11.5 -50t5 -59.5q0 -14 -2 -27
t-7 -24z" />
    <glyph glyph-name="M" unicode="M" horiz-adv-x="557" 
d="M302 740q23 -65 32.5 -133t9.5 -136q0 -93 -13 -178.5t-29 -151.5t-29 -105.5l-13 -39.5q0 -3 -2 -3h-1h-11h-1q-1 0 -1 2q0 9 6.5 33.5t14 63t14 91.5t6.5 119q0 87 -17.5 193.5t-65.5 234.5q-2 4 -6.5 7.5t-9.5 5.5q-6 3 -12 5l1 1h118q2 0 4 -1q3 -2 5 -8zM476 740
q23 -65 32 -132.5t9 -135.5q0 -93 -13 -179t-29 -152t-29 -105.5l-13 -39.5q0 -1 -1 -2v-1h-1h-12q-1 0 -1 1v4q0 10 6.5 35t14 63.5t14 90t6.5 114.5q0 87 -17.5 194t-65.5 235q-1 2 -5.5 5.5t-9.5 6.5q-6 4 -13 6l1 1h118q2 0 4 -1q3 -2 5 -8zM248 740q0 -9 -9 -9
l-136 -15q-4 0 -6.5 10t-2.5 14q0 9 9 9h136q9 0 9 -9zM403 740q0 -9 -9 -9l-135 -15q-4 0 -7.5 10t-3.5 14t3.5 6.5t7.5 2.5h135q9 0 9 -9zM158 741q0 -2 -2 -34.5l-5 -85.5l-6.5 -119.5t-8 -135.5t-8 -135.5l-6.5 -118.5l-5 -84l-2 -32q0 -1 -1 -2v-1h-12q-1 -2 -3 28.5
t-4.5 81.5t-6.5 117t-7.5 135l-7 135.5t-7 119.5t-5.5 86.5t-3 35.5q-3 6 -13 10l-15 6l1 1h1h117q1 0 5 -0.5t4 -5.5v-2z" />
    <glyph glyph-name="N" unicode="N" horiz-adv-x="444" 
d="M177 741q0 -2 -2 -34.5l-5 -85.5l-6.5 -119.5t-7.5 -135.5t-7.5 -135.5l-6.5 -118.5l-5 -84l-2 -32q0 -1 -1 -2v-1h-1h-12q-1 -2 -3 28.5t-4.5 81.5t-6.5 117t-7.5 135l-7 135.5t-7 119.5t-5.5 86.5t-3 35.5q-1 1 -5 4t-9 6t-9 4.5l-4 1.5q0 1 1 1h117q2 0 4 -1
q5 -3 5 -5v-2zM160 744q0 -2 20.5 -35.5l49.5 -82.5l61 -104.5l56 -100.5q4 -8 7.5 -18.5t3.5 -16.5q0 -5 -3 -5t-13 13l-43.5 59.5l-50 67.5l-49.5 66.5l-43.5 58l-32 41.5t-13.5 17q-4 2 -8 2t-7.5 -1t-5.5 -1h1l62 41h1q1 0 1.5 0.5t1.5 0.5q3 0 4 -2zM394 741
q0 -2 -2 -34.5l-5 -85.5l-6.5 -119.5t-7.5 -135.5t-7.5 -135.5l-6.5 -118.5l-5 -84l-2 -32q0 -1 -1 -2v-1h-13h-1q-1 0 -1 3q0 8 -2 43.5t-4.5 88t-6 117.5l-7 131l-7 129.5t-6.5 113t-5.5 80.5t-3.5 33q-3 6 -12.5 10l-14.5 6l1 1h1h116q2 0 4 -1q5 -3 5 -5v-2z" />
    <glyph glyph-name="O" unicode="O" horiz-adv-x="493" 
d="M420 741q15 -58 21.5 -112t6.5 -105q0 -84 -15 -157t-38 -132.5t-49 -105.5t-47.5 -77t-35.5 -46t-11 -13h-11h-1q-1 0 -1 2q0 13 18.5 42t41 80.5t41 128t18.5 184.5q0 63 -8.5 138t-28.5 164q-2 7 -12.5 11l-15.5 6h1h117q1 0 4.5 -1t4.5 -7zM72 741q2 6 5 7t4 1h118
l-14.5 -6t-11.5 -11q-21 -89 -29.5 -164.5t-8.5 -139.5q0 -108 18.5 -184.5t41 -127.5t41.5 -80t19 -42q0 -1 -2 -1h-1h-11l-1 1q0 1 -14.5 18t-36 49t-47 78t-47 105.5t-36 130.5t-14.5 153q0 50 6.5 103t20.5 110zM361 740q0 -5 -4.5 -7.5t-9.5 -2.5l-182 -14
q-5 0 -8.5 9.5t-3.5 14.5q0 9 12 9h182q5 0 9.5 -2.5t4.5 -6.5z" />
    <glyph glyph-name="P" unicode="P" horiz-adv-x="418" 
d="M179 741q0 -2 -2 -34.5l-5 -85.5l-7 -119.5l-8 -135.5l-8 -135.5l-7 -118.5l-5 -84l-2 -32q0 -1 -1 -2v-1h-1h-11h-1q-1 0 -1 1t1 2q-1 8 -2.5 43.5t-4.5 88l-6.5 117.5l-7 131t-7.5 129.5l-7 113l-5 80.5t-3 33q-3 6 -15.5 11t-12.5 6h1h118q2 0 5 -1q5 -3 5 -7z
M352 741q26 -77 26 -130q0 -46 -16.5 -73.5t-40.5 -42.5t-51.5 -19.5t-49.5 -4.5q-19 0 -31 1.5t-13 1.5q0 -3 -2 -3h-1h-10h-2q-1 0 -1 1t1 2l46.5 14t42 18.5t30.5 30.5t12 50q0 26 -9.5 61t-30.5 84q-3 6 -15.5 11t-12.5 6h1h118q1 0 3 -1q3 -2 6 -7zM290 740
q0 -10 -9 -10l-138 -14q-4 0 -6.5 9.5t-2.5 14.5q0 9 9 9h138q9 0 9 -9z" />
    <glyph glyph-name="Q" unicode="Q" horiz-adv-x="504" 
d="M427 741q14 -57 20.5 -110t6.5 -103q0 -82 -14.5 -153t-36 -130.5t-47 -105.5t-47 -78t-36 -49.5l-14.5 -17.5q0 -1 -1 -1h-12h-1v2q0 13 18.5 42.5t41 81t41 128t18.5 183.5q0 64 -8.5 139t-28.5 163q-2 7 -13 11t-16 6h1h118q1 0 4.5 -1t5.5 -7zM78 741q1 6 4 7t4 1
h118h1q-6 -2 -16 -6t-12 -11q-20 -88 -28.5 -163t-8.5 -139q0 -73 9 -131.5t22 -104.5t29 -80t29 -58.5t22 -39.5t9 -23h-1h-1h-11q3 -3 -10 11.5t-35 45.5t-48.5 77.5t-49.5 106.5t-38.5 133.5t-15.5 159.5q0 50 6.5 103.5t21.5 110.5zM365 740q0 -10 -12 -10l-182 -14
q-6 0 -10 9.5t-4 14.5q0 9 14 9h182q12 0 12 -9zM292 487q2 0 5 -1q5 -3 5 -9l-2 -28.5t-5 -75.5l-6.5 -107t-8 -123t-8 -123.5l-6.5 -108t-5 -76.5t-2 -30t-1 -2v-1h-5v685h39zM254 487v-685h-5h-1q-1 0 -1 3q0 1 -2 29.5t-5 75.5l-7 106.5l-8 122l-8 122.5l-7 107
t-5.5 76.5t-2.5 31.5q0 8 5 10q3 1 6 1h41z" />
    <glyph glyph-name="R" unicode="R" horiz-adv-x="423" 
d="M177 741q0 -2 -2 -34.5l-5 -85l-7 -119l-8 -136l-8 -136l-7 -118.5l-5 -84l-2 -32q0 -1 -1 -2h-10h-1q-1 0 -2.5 31t-4.5 82t-6.5 116.5l-7 134l-7 134.5l-6.5 118.5t-5.5 85.5t-3.5 36q-5 6 -14 10.5t-14 6.5h1h118q1 0 4.5 -1t3.5 -7zM352 741q14 -39 20 -71t6 -58
q0 -47 -17 -74.5t-41.5 -42.5t-53 -19.5t-50.5 -4.5q-18 0 -29 1.5t-13 1.5q0 -1 -1 -2v-1h-12h-1v3q23 8 46.5 15t42 18.5t30.5 30t12 49.5q0 26 -9.5 61t-30.5 84q-3 7 -13 11l-15 6h2h116q2 0 4 -1q5 -2 7 -7zM288 740q0 -3 -2.5 -6.5t-6.5 -3.5l-135 -13q-5 0 -8 10
t-3 13q0 9 11 9h135q9 0 9 -9zM338 -15q0 13 3.5 34t3.5 48q0 56 -7.5 120.5t-24 123t-43 103t-64.5 61.5h-1l1 1h106q5 -1 9 -2q8 -2 12 -7q29 -37 39.5 -91.5t10.5 -114.5q0 -51 -5.5 -100.5t-12.5 -88.5t-13 -63t-7 -24h-7zM250 467q0 -8 -9 -8l-119 -12q-5 0 -6.5 8.5
t-1.5 11.5q0 9 8 9h119q9 0 9 -9z" />
    <glyph glyph-name="S" unicode="S" horiz-adv-x="437" 
d="M77 1q-5 11 -7 24t-2 27q0 31 6.5 64t15 60t15 44.5t6.5 18.5v3h1h12h1l1 -2q0 -8 -5.5 -30.5t-5.5 -52.5q0 -16 3 -40t11 -48.5t23.5 -45.5t39.5 -30l-1 -1h-106q-1 0 -3 1q-4 2 -5 8zM377 745q9 -23 9 -51q0 -31 -8.5 -64t-19 -60.5t-19 -45.5t-8.5 -19t-1 -2h-12h-1
q-1 0 -1 2q3 9 7 30.5t4 50.5q0 16 -3 40t-11.5 49t-23.5 46t-40 31l1 1h118q1 0 3 -1q3 -2 6 -7zM342 -8h-186q-2 0 -10 3t-16.5 7l-15.5 7.5t-7 5.5l36 12q7 -13 21 -13.5t19 -0.5l178 4zM57 745q1 5 6 7q2 1 3 1h118l1 -1q-8 -2 -13 -5q-13 -5 -14 -11q-14 -42 -20 -75
t-6 -59q0 -48 19 -77t47 -51t61.5 -43t61.5 -52t47 -78.5t19 -122.5q0 -36 -7.5 -79.5t-18.5 -96.5q-3 -7 -11 -9q-4 -1 -8 -1l2 10v-1h-2q-1 0 -1 1q5 31 10.5 58t5.5 51q0 77 -23.5 126t-58.5 82t-76.5 58t-76.5 55t-58.5 72.5t-23.5 110.5q0 27 4 59.5t13 70.5zM315 744
q0 -10 -13 -10l-182 -14q-5 0 -9 9.5t-4 14.5q0 4 4 6.5t9 2.5h182q13 0 13 -9z" />
    <glyph glyph-name="T" unicode="T" horiz-adv-x="374" 
d="M365 740q9 -23 9 -50q0 -32 -8.5 -65t-19 -60.5t-19 -45t-8.5 -18.5t-1 -2v-1h-1h-11h-1q-1 0 -1 1q0 9 5 31t5 51q0 16 -2.5 40t-11 49t-23.5 46t-39 32h-1l1 1h118q1 0 3 -1q3 -1 6 -8zM9 740q3 7 6 8q2 1 3 1h118l2 -1q-25 -10 -40 -31.5t-23.5 -46.5t-11.5 -49.5
t-3 -40.5q0 -29 5 -51t5 -30q0 -1 -1 -1h-12h-1v3q0 1 -9 18.5t-19.5 45t-19 60.5t-8.5 65q0 27 9 50zM324 739q0 -9 -12 -9l-285 -15q-6 2 -9.5 7.5t-3.5 12.5q0 5 3 9.5t10 4.5h285q12 0 12 -10zM237 740q0 -2 -2 -34.5l-5 -85l-7 -119l-8 -136l-7.5 -136l-6.5 -118.5
l-5 -84t-2 -33t-1 -2h-1h-11h-1q-1 0 -1 1v1q0 8 -2 44t-4.5 88.5t-6 117.5t-7.5 131.5l-7.5 129.5l-6.5 112.5t-5.5 80.5t-3.5 33q-3 6 -13 10.5t-15 6.5l2 1h118q2 0 4 -1q5 -3 5 -8z" />
    <glyph glyph-name="U" unicode="U" horiz-adv-x="468" 
d="M418 741q0 -2 -2.5 -34.5t-5.5 -85.5l-7 -119.5l-8 -135.5t-7.5 -135.5l-6.5 -118.5l-5 -84l-2 -32l-1 -2v-1h-1h-11h-1q-1 0 -1 1t1 2q-1 8 -2.5 43.5t-4.5 88l-6.5 117.5l-7 131t-7.5 129.5l-7 113l-5 80.5t-3 33q-2 3 -6.5 6t-9.5 5t-9 4l-4 2h1h118q2 0 5 -1
q6 -2 6 -7zM182 741q-29 -109 -41 -196t-12 -157q0 -91 17 -154.5t43 -105.5t56 -66t55.5 -35.5t43 -14.5l17.5 -3q2 -1 2.5 -5t0.5 -8v-2q0 -1 1 -1q-8 0 -8.5 -0.5t-0.5 1.5q0 3 -22.5 6.5t-56.5 16t-74 38.5t-74 75t-56.5 125t-22.5 189q0 60 7.5 131.5t24.5 156.5v1
q0 6 -11 10t-16 6h1h118q1 0 4.5 -0.5t3.5 -4.5v-3z" />
    <glyph glyph-name="V" unicode="V" horiz-adv-x="464" 
d="M168 741q0 -2 -2 -34.5l-5 -85l-6.5 -119.5t-7.5 -136.5l-8 -136t-6.5 -118.5t-4.5 -84t-2 -33l-1 -1h-1h-10h-2l-1.5 31.5t-4.5 83.5l-7 118l-8 135l-8 135.5l-7 118.5t-5.5 84t-2.5 33q-5 6 -14 10.5t-14 6.5h1h118q1 0 5 -1t4 -7zM403 741q11 -45 16 -86.5t5 -81.5
q0 -89 -21.5 -166t-53.5 -141t-69.5 -114.5t-70 -85t-55 -53.5t-24.5 -20h-10h-1q0 9 15.5 26.5l39 45t51 67.5t51 93.5t39 123t15.5 156.5q0 51 -6.5 107t-20.5 120q-2 7 -13.5 11t-14.5 6h1h117q1 0 4.5 -1t5.5 -7z" />
    <glyph glyph-name="W" unicode="W" horiz-adv-x="660" 
d="M172 740q0 -2 -2 -34.5l-5 -85l-6.5 -119.5t-7.5 -136.5l-7.5 -136l-6.5 -118.5l-5 -84l-2 -32l-2 -2h-1h-10h-2v1q0 8 -2 44l-5 89l-6.5 117.5l-7 131t-7.5 129.5l-7 112.5t-5.5 80.5t-3.5 33q-3 6 -14 11.5t-14 6.5h2h118q1 0 5 -1t4 -7zM388 740q11 -45 16 -86t5 -81
q0 -89 -20 -166t-50 -141t-65 -114.5t-66 -85.5t-52.5 -54t-23.5 -20h-9h-1v2q0 9 14.5 27l35.5 46t46.5 67.5t46.5 93t35.5 122t14.5 154.5q0 51 -6.5 107t-20.5 119q-2 8 -12.5 12l-15.5 6h1h118q1 0 4 -1t5 -7zM368 402q-5 -74 -10.5 -146.5t-10.5 -130.5l-8 -94t-3 -37
q0 -2 -2 -2h-2h-10h-1q-1 0 -1 1v1v37.5t-1 76t-2.5 102t-4.5 117.5v13q0 26 4.5 49.5t11 41.5t14 29t13.5 11q14 0 14 -44v-12t-1 -13zM610 740q11 -45 16 -86t5 -81q0 -89 -21 -166t-53 -141t-70 -114.5t-70.5 -85.5t-55 -54t-24.5 -20h-10h-2q0 1 0.5 1t0.5 1
q0 9 15.5 27l39 46t51 67.5t51 93t39 122t15.5 154.5q0 51 -6.5 107t-20.5 119q-2 8 -12.5 12l-15.5 6h1h118q1 0 4 -1t5 -7z" />
    <glyph glyph-name="X" unicode="X" horiz-adv-x="442" 
d="M168 741q0 -26 9.5 -72t25 -103t35 -121.5t40.5 -127.5l40.5 -121l35 -102.5l25 -71l9.5 -26.5q0 -2 -2 -2h-1h-10h-1q-1 0 -1 1v1q-3 11 -23 50.5l-49 98.5l-64 132.5t-68 152t-60.5 156.5t-41.5 146q-1 7 -12 11t-15 6h1h118q1 0 5 -1t4 -7zM274 741q0 6 4 7t5 1h118h1
l-15 -6t-12 -11q-15 -71 -44.5 -153t-64 -164t-70.5 -158l-65.5 -134.5l-47 -93.5t-15.5 -35h-1h-10h-1q-2 0 -2 2l9.5 26.5l25 71l35 102.5l40.5 121t40.5 127.5t35 121.5t25 103t9.5 72z" />
    <glyph glyph-name="Y" unicode="Y" horiz-adv-x="385" 
d="M232 741q0 6 4 7t5 1h118h1l-15 -6t-12 -11q-17 -78 -48.5 -168t-71.5 -178q-3 -7 -7 -7q-6 0 -12 12.5t-11 28.5t-8 29.5t-3 16.5q13 42 24 81.5t19 74t12.5 63t4.5 48.5v8zM153 741q0 -19 4.5 -47.5t12.5 -64.5t19 -77l24 -86v-2q0 -5 -3 -19t-8 -28.5t-10.5 -26
t-11.5 -11.5q-4 0 -7 7q-41 88 -72.5 178t-48.5 168q-1 7 -11.5 11l-15.5 6h2h116q2 0 5 -1q5 -3 5 -7zM224 406q-3 -74 -7 -147t-8 -131.5l-6.5 -95l-2.5 -36.5q0 -1 -1 -2v-1h-11h-2q-1 0 -1 3q0 8 -3.5 47t-7 96t-7 126.5t-3.5 139.5q0 16 13 31.5t27 15.5q9 0 14.5 -10
t5.5 -36z" />
    <glyph glyph-name="Z" unicode="Z" horiz-adv-x="426" 
d="M360 57q0 -5 -0.5 -14t-2 -19t-5 -18t-9.5 -9h-106l-1 1q24 9 39.5 30t23.5 45.5t11 48.5t3 40q0 30 -5.5 52.5t-5.5 30.5q0 2 1 2h1h12v-1q0 -1 1 -2q0 -1 6.5 -18.5t15 -44.5t15 -60t6.5 -64zM50 740q1 5 5 7q2 1 3 1h118q0 -1 1 -1l1 -1q-2 0 -13.5 -6.5t-13.5 -9.5
q-31 -38 -41 -77.5t-10 -73.5q0 -29 5 -50.5t5 -30.5q0 -1 -1 -1h-11h-2q-1 0 -1 3q0 1 -8.5 18.5t-19 44.5t-19 60t-8.5 64q0 30 10 53zM87 21l156 -3q7 0 19 0.5t20 14.5l37 -12q0 -2 -6.5 -6t-15 -8t-16.5 -7t-11 -3h-169zM369 740q9 -38 13 -70.5t4 -60.5
q0 -68 -21.5 -110t-54 -72.5t-70 -55t-70 -57.5t-54 -81t-21.5 -125q0 -25 2.5 -51.5t7.5 -58.5q0 -1 -2 -1h-5h-11h-2q-21 106 -21 178q0 74 17 121t43 78t55.5 52t55.5 43t43 50.5t17 76.5q0 26 -6 59t-20 75q-1 3 -5.5 6t-9.5 5.5t-9.5 3.5l-4.5 1q0 1 1 2h119q2 0 4 -1
q4 -2 5 -7zM111 738q0 5 3.5 7.5t8.5 2.5h184q12 0 12 -10q0 -4 -3.5 -14t-8.5 -10l-184 15q-5 0 -8.5 2.5t-3.5 6.5z" />
    <glyph glyph-name="a" unicode="a" horiz-adv-x="444" 
d="M62 584q0 6 3.5 7t5.5 1h89h1q0 -1 -1 -1t-1 -2t5 -8t5 -8q0 -1 -1 -1q-23 0 -36 -2.5t-20 -9t-10.5 -18.5t-6.5 -30h-12h-1q-1 0 -1 3q0 1 -3 10.5l-6.5 21.5l-6.5 23t-3 14zM123 583q0 9 13 9h186q12 0 12 -9q0 -4 -3.5 -13.5t-8.5 -9.5l-186 14q-13 0 -13 9zM125 381
q0 5 3.5 7.5t8.5 2.5h186q13 0 13 -10q0 -5 -4 -15t-9 -10l-186 15q-5 0 -8.5 2.5t-3.5 7.5zM378 584q14 -55 20 -103.5t6 -92.5q0 -74 -13 -132.5t-32 -102t-41.5 -74t-41.5 -49.5t-32 -28l-13 -9q0 -1 -1 -2h-1h-11h-1q-1 0 -1 2q0 13 14.5 32t32.5 55t32.5 94.5
t14.5 151.5q0 51 -8 112.5t-26 136.5q-1 4 -5.5 7t-9.5 5l-9 3.5l-4 1.5h1h119q1 0 4.5 -1t5.5 -7zM56 382q1 6 6 8q2 1 3 1h118h1q0 -1 -1 -1q-22 -8 -36 -32t-22.5 -52.5t-11.5 -56t-3 -40.5q0 -44 17.5 -80.5t39.5 -64.5t40.5 -45.5t20.5 -24.5q0 -1 -1 -2v-1h-1h-11
l-50 44l-34 31t-15 16q0 1 -12 14.5t-26 40.5t-26 67.5t-12 96.5q0 43 16 81z" />
    <glyph glyph-name="b" unicode="b" horiz-adv-x="471" 
d="M178 746q0 -2 -2 -35l-5 -86l-6.5 -120t-8 -137t-8 -137l-6.5 -119.5t-5 -84.5t-2 -33l-1 -2h-1h-11h-1l-2 31.5t-5 83t-6.5 117.5l-7 135t-7.5 136l-7 120t-6 86t-4 36q-2 3 -6 6t-9 5q-5 3 -11 6h1h118q1 0 5 -1t4 -7zM408 585q0 -9 -13 -9l-237 -14q-6 0 -10 9.5
t-4 13.5t4 7.5t10 3.5h237q5 0 9 -3.5t4 -7.5zM410 585q11 -45 16 -84.5t5 -76.5q0 -82 -22 -145t-54.5 -111t-71 -80.5t-71 -53.5t-54.5 -30.5l-22 -9.5l-1 -2h-1h-11h-1q-1 0 -1 2q0 9 16 21l39.5 30t51 45t51 67t39.5 94.5t16 128.5q0 42 -6 90.5t-20 105.5q-1 4 -5.5 7
t-10 5l-9.5 3.5l-4 1.5h1h120q2 0 4 -1q5 -2 6 -7z" />
    <glyph glyph-name="c" unicode="c" horiz-adv-x="429" 
d="M314 585q0 -9 -12 -9l-184 -14q-5 0 -9.5 9.5t-4.5 13.5t4.5 7.5t9.5 3.5h184q5 0 8.5 -3.5t3.5 -7.5zM61 586q1 7 6 9q2 1 3 1h119l1 -1q-7 -3 -13 -6q-13 -5 -16 -12q-14 -57 -20 -105t-6 -90q0 -74 16 -129t39.5 -95t51.5 -67t51.5 -45l39.5 -30t16 -21q0 -1 -1 -2h-1
h-11h-2q-1 0 -1 2q0 1 -21.5 10t-54.5 30t-70.5 54t-70.5 81t-54.5 111t-21.5 145q0 36 5 75.5t16 84.5zM380 588q9 -23 9 -49q0 -30 -9 -61.5t-19.5 -57.5t-19 -42.5t-8.5 -17.5t-1 -2h-1h-11l-1 1q0 10 5 29.5t5 46.5q0 12 -3 36t-11.5 49.5t-23.5 46.5t-39 28h-1l1 1h1
h118q1 0 3 -1q3 -2 6 -7z" />
    <glyph glyph-name="d" unicode="d" horiz-adv-x="462" 
d="M291 747q0 6 5 8q2 1 5 1h120l1 -1l-4 -1.5t-9 -4t-10 -5.5t-6 -6q-1 -2 -3.5 -33t-5.5 -81l-6.5 -114l-7 -131l-7 -132.5l-6.5 -118.5t-4.5 -89t-2.5 -44v-1q0 -1 -1 -1h-11h-1q-1 0 -1 2q0 1 -2 33t-5 84.5l-7 119.5l-8 137l-8 137.5t-7.5 120.5l-5.5 85.5t-2 34.5z
M63 587q0 10 13 10h237q12 0 12 -10q0 -4 -3.5 -14t-8.5 -10l-237 15q-13 0 -13 9zM62 586q1 7 5 9q2 1 4 1h119l2 -1l-15.5 -6.5t-12.5 -11.5q-14 -57 -20.5 -106t-6.5 -91q0 -74 15.5 -129t39.5 -95t51 -67t51 -45l39.5 -29.5t15.5 -20.5q0 -1 -1 -1h-11q-1 2 -23 12
t-55 31t-71.5 53.5t-71 80t-54.5 110.5t-22 145q0 74 22 161z" />
    <glyph glyph-name="e" unicode="e" horiz-adv-x="419" 
d="M375 584q9 -23 9 -49q0 -30 -8.5 -61.5t-19 -57.5t-19.5 -42.5t-9 -17.5q-2 -2 -3 -2h-2q-8 0 -9 0.5t-1 1.5q0 10 5.5 29t5.5 46q0 12 -3 36t-11.5 49.5t-24 47t-39.5 27.5l1 1h1h118q1 0 3 -1q3 -2 6 -7zM311 583q0 -4 -3.5 -6.5t-8.5 -2.5l-185 -14q-5 0 -9 9.5
t-4 13.5q0 9 13 9h185q5 0 8.5 -2.5t3.5 -6.5zM57 584q2 6 5.5 7t4.5 1h119h1q0 -1 -4.5 -2t-9.5 -3.5t-9.5 -5t-5.5 -6.5q-14 -57 -20.5 -106t-6.5 -91q0 -74 16 -129t39.5 -95t51 -66.5t51 -45t39.5 -30t16 -20.5q0 -1 -1 -1h-1h-12q0 1 -22 11t-54.5 30.5t-71 53.5
t-71 80.5t-54.5 110.5t-22 145q0 75 22 162zM123 379q0 10 12 10h184q13 0 13 -10q0 -5 -4 -15t-9 -10l-184 15q-12 0 -12 10z" />
    <glyph glyph-name="f" unicode="f" horiz-adv-x="411" 
d="M368 742q5 -11 6.5 -23t1.5 -24q0 -29 -8.5 -58.5t-19 -52.5t-19 -38t-8.5 -16t-1 -2v-1h-1h-11h-1q-1 0 -1 2l6 26.5t4 40.5q0 29 -10 64t-41 73q-6 6 -16 11q-5 3 -11 6h1h119q1 0 3 -1q5 -2 7 -7zM317 741q0 -9 -14 -9l-184 -15q-5 0 -9 10t-4 14q0 9 13 9h184
q14 0 14 -9zM61 742q2 6 5.5 7t4.5 1h119h1l-4 -1.5l-9 -3.5t-9 -5t-5 -7q-15 -65 -24.5 -122t-9.5 -108q0 -86 16 -167t39.5 -153t51.5 -132.5t52.5 -106.5l41.5 -75.5t19 -38.5q0 -1 -1 -2h-1h-11q-1 2 -23 33t-55 84t-71.5 124t-71 153.5t-54.5 172.5t-22 180q0 40 5 81
t16 86zM282 392q0 -4 -3.5 -6.5t-8.5 -2.5l-156 -17q-5 0 -8.5 11t-3.5 15q0 9 12 9h156q5 0 8.5 -2.5t3.5 -6.5z" />
    <glyph glyph-name="g" unicode="g" horiz-adv-x="474" 
d="M411 586q12 -48 17.5 -93t5.5 -89q0 -90 -19.5 -170.5t-49 -149t-64 -123t-64.5 -93t-50 -60t-21 -23.5h-11l-1 1q0 9 14 28t34.5 50t44.5 74t44.5 100t34.5 128.5t14 158.5q0 57 -7 119t-23 132q-1 4 -5.5 7t-9.5 5l-9 3.5t-4 2.5t1 1h119q2 0 4 -1q3 -2 5 -8zM64 585
q0 10 14 10h237q12 0 12 -10q0 -5 -3.5 -14.5t-8.5 -9.5l-237 14q-14 0 -14 10zM63 584q2 6 5 7t4 1h120h1l1 -1q-8 -2 -14 -5q-5 -2 -9.5 -5.5t-5.5 -5.5q-16 -65 -23 -119.5t-7 -100.5q0 -69 12.5 -120.5t32 -89t41.5 -62.5t41.5 -42.5l32 -28.5t12.5 -20q0 -1 -1 -1h-1
h-12q-1 2 -20 11.5t-47 29.5t-60.5 52t-60.5 77.5t-46.5 106.5t-18.5 140q0 40 5.5 83.5t17.5 92.5z" />
    <glyph glyph-name="h" unicode="h" horiz-adv-x="417" 
d="M160 747q0 -2 -2 -34.5l-5 -85.5l-7 -120.5l-8 -137.5l-8 -137l-7 -119.5t-5 -84.5t-2 -33t-1 -2h-1h-11q-1 6 -3 41l-5 88l-6.5 118.5t-7.5 133.5l-7.5 132.5l-6.5 115t-5.5 82.5t-3.5 34q-2 3 -6.5 6t-9.5 5l-12 6l1 1h119q1 0 5.5 -1t4.5 -8zM315 -6h-4.5t-2.5 2
q5 20 9 70t4 114q0 67 -5.5 136.5t-19 128t-36 98.5t-55.5 48q-1 0 -1 1h1h106q5 0 9 -1q9 -2 14 -7q24 -31 33.5 -80.5t9.5 -107.5q0 -45 -4.5 -92t-11 -92t-14.5 -84.5t-15 -69t-12 -47zM263 584q0 -8 -8 -8l-120 -13q-5 0 -7 9t-2 12q0 8 9 8h120q8 0 8 -8z" />
    <glyph glyph-name="i" unicode="i" horiz-adv-x="229" 
d="M179 586q0 -2 -2 -28l-5 -67.5l-7 -94.5l-8 -107.5l-8 -107l-7 -93.5l-5 -66.5l-2 -25.5l-1 -2h-1h-11q0 1 -2 26.5l-5 66t-7.5 92t-8.5 105.5l-8 105.5t-7.5 92.5t-5 66.5t-1.5 27.5q-5 8 -15.5 12.5t-11.5 4.5l1 2h119q2 0 4 -1q5 -3 5 -8zM178 715q-4 -12 -12.5 -27
t-17 -28.5t-15.5 -22.5t-8 -10l-1 -1q-1 0 -2 1l-15 20l-18 25t-15.5 25.5t-6.5 20.5q0 6 6 6h98q1 0 4 -0.5t3 -8.5z" />
    <glyph glyph-name="j" unicode="j" horiz-adv-x="329" 
d="M257 593q12 -48 17 -92.5t5 -88.5q0 -95 -21 -178.5t-52.5 -153.5t-67 -125t-65 -92t-47.5 -55.5t-13 -14.5h-11h-1q-1 0 -1 2q0 10 13.5 29.5l34.5 50.5t44.5 74.5t44.5 99.5t34.5 126.5t13.5 156.5q0 57 -7 119.5t-23 132.5q-1 3 -5 6.5t-9 5.5q-6 3 -13 6l1 1h118
q2 0 4 -1q3 -2 6 -9zM248 717q-4 -12 -12.5 -27t-17 -28.5t-15.5 -22.5t-8 -10l-1 -1q-1 0 -2 1l-15 20l-18 25t-15.5 25.5t-6.5 20.5q0 6 6 6h98q1 0 4 -0.5t3 -8.5z" />
    <glyph glyph-name="k" unicode="k" horiz-adv-x="429" 
d="M330 311q28 -20 38 -40t10 -46q0 -38 -4 -79.5t-8.5 -76t-8 -57t-3.5 -23.5t-1 -2h-1h-11l-1 -1q-1 1 -0.5 12t2.5 30q6 60 -5.5 112.5t-34 91.5t-52.5 62t-62 25q0 1 4.5 6t9.5 10q6 6 15 14q26 -7 49 -14q20 -6 38 -12.5t26 -11.5zM181 741q0 -2 -2 -34.5l-5.5 -85.5
t-7.5 -120.5l-8 -137.5l-8 -137l-7 -119.5t-5 -84.5t-2 -33t-1 -2h-11h-1q-1 0 -1 1v1q0 8 -2 44l-5 89l-6.5 118.5l-7 132.5l-7 130.5t-7 114l-5.5 81.5t-3 33q-2 3 -6.5 6t-9.5 5.5t-9 3.5l-4 1l1 1h1h119q2 0 5 -1q5 -3 5 -7zM135 311q0 1 19.5 8.5t42.5 33.5t42.5 78
t19.5 141v14q0 7 4 9q2 1 5 1h119l2 -1q-5 -3 -15 -7.5t-13 -10.5q-14 -29 -22 -58.5t-17 -58.5t-21 -55t-34 -47.5t-56.5 -36t-88.5 -20.5z" />
    <glyph glyph-name="l" unicode="l" horiz-adv-x="276" 
d="M78 741q1 5 5 7q2 1 4 1h118h1l1 -1q-7 -2 -13 -5q-5 -2 -9.5 -5t-5.5 -6q-20 -90 -29 -165t-9 -140q0 -108 18.5 -185.5t41 -129t41.5 -81t19 -42.5v-3q0 -1 -1 -2h-11q-1 -1 -1 0q-1 0 -1 4l-14.5 17.5t-36.5 49.5t-47.5 78.5t-47.5 106t-36.5 131.5t-14.5 155
q0 102 28 215z" />
    <glyph glyph-name="m" unicode="m" horiz-adv-x="602" 
d="M180 582q0 -2 -2 -27.5l-5.5 -67t-7.5 -94.5l-8 -107.5l-8 -106.5l-7 -93l-5 -66.5l-2 -25.5q0 -1 -1 -2v-1h-1h-11q-1 4 -4 47.5l-7.5 107.5l-9.5 137.5l-9.5 137t-8.5 106.5t-5 46q-2 3 -6.5 6t-9.5 6l-12 6h1h120q1 0 5 -1t4 -8zM308 -8q-3 0 -3 2q5 20 8.5 69
t3.5 112q0 67 -5.5 137t-19 128.5t-36 99t-55.5 50.5q-1 0 -1 1h1h107q5 0 9 -1q6 -1 12 -7q24 -31 33.5 -81t9.5 -110q0 -67 -9 -138t-20 -129t-20.5 -95.5t-10.5 -37.5h-4zM259 583q0 -9 -8 -9l-121 -12q-4 0 -6.5 8.5t-2.5 12.5q0 8 9 8h121q8 0 8 -8zM489 -8q-3 0 -3 1
q0 20 6 69.5t6 113.5q0 68 -5.5 138t-19 128.5t-36.5 98.5t-57 49l1 1h1h107q5 0 9 -1q6 -1 12 -7q23 -31 32.5 -80.5t9.5 -109.5q0 -45 -4.5 -92t-11 -91.5t-14 -84t-14 -69t-11 -47l-4.5 -17.5h-4zM439 583q0 -9 -8 -9l-120 -12q-3 0 -5.5 8.5t-2.5 12.5q0 8 8 8h120
q8 0 8 -8z" />
    <glyph glyph-name="n" unicode="n" horiz-adv-x="437" 
d="M170 592q0 -2 -2 -28l-5 -67.5l-6.5 -94.5t-7.5 -108l-8 -107l-7 -93.5t-5 -66.5l-2 -25q-3 -3 -6 -3t-7 2q-1 5 -3 32l-5 68l-6.5 92t-7.5 104l-7.5 103.5t-7 90t-5.5 65t-3 27.5q-2 3 -6.5 6t-9.5 5.5t-9 4l-4 1.5l1 1h1h119q2 0 5.5 -1t3.5 -8zM334 4q-1 -1 -3 -2.5
t-4 -1.5t-5 1.5t-3 2.5q5 19 9 67.5t4 111.5q0 68 -8 138t-24.5 129t-41.5 99.5t-58 50.5q-1 0 7 0t8 1h1h106q5 0 9 -1q7 -2 13 -7q24 -31 33.5 -81t9.5 -109q0 -68 -8 -138.5t-18 -128t-18.5 -95zM273 593q0 -9 -8 -9l-120 -12q-5 0 -7 8.5t-2 12.5q0 8 9 8h120q8 0 8 -8z
" />
    <glyph glyph-name="o" unicode="o" horiz-adv-x="488" 
d="M104 585q0 4 3.5 7.5t8.5 3.5h238q5 0 9 -3.5t4 -7.5t-4 -13.5t-9 -9.5l-238 14q-12 0 -12 9zM68 586q1 7 6 9q2 1 4 1h119l2 -1q-5 -3 -16.5 -7t-13.5 -11q-20 -79 -28 -143t-8 -116q0 -60 9 -104.5t22 -77.5t29 -56t29 -38.5l22 -26.5t9 -19q0 -1 -1 -2v-1h-1h-11h-1
q-1 0 -1 2l-14.5 9t-36.5 27.5t-48 48.5t-48 73t-36.5 100t-14.5 130q0 45 6.5 95t21.5 108zM421 586q14 -57 20.5 -107.5t6.5 -95.5q0 -73 -14.5 -130t-36.5 -100t-47 -73t-47 -48.5t-36.5 -27.5l-14.5 -9q0 -1 -1 -2h-1h-11l-1 1q0 9 8.5 19l21.5 25.5t28.5 38.5t28.5 56
t21.5 78t8.5 106q0 52 -8 116t-27 144q-1 3 -5.5 6.5t-9.5 5.5q-6 3 -13 6l2 1h118q2 0 4 -1q4 -2 5 -9z" />
    <glyph glyph-name="p" unicode="p" horiz-adv-x="473" 
d="M180 585q0 -2 -2 -36l-5 -89l-7 -125l-8 -143l-8 -143l-7 -124.5l-5 -88l-2 -33.5l-1 -2v-1h-1h-11h-1q-1 0 -1 1v1q0 9 -2 46l-5 92.5l-6.5 124l-7 138l-7 136t-7 118.5t-5.5 84.5t-3 34.5q-5 6 -16 12q-5 3 -12 5l1 2h119q1 0 5.5 -1t4.5 -9zM401 586q0 -5 -3.5 -7.5
t-8.5 -2.5l-239 -14q-5 0 -8.5 9.5t-3.5 14.5q0 10 12 10h239q5 0 8.5 -3t3.5 -7zM402 585q11 -45 16 -84.5t5 -76.5q0 -82 -21.5 -145t-54 -110.5t-70.5 -80.5t-71 -53.5t-55 -30.5t-23 -12h-12h-1q-1 0 -1 1q0 9 16 20.5t39.5 30t51 45t51 66.5t39.5 95t16 129
q0 43 -6 91.5t-20 105.5q-1 4 -5.5 6.5t-9.5 5t-9 3.5t-4 2h1h119h1q6 0 8 -8z" />
    <glyph glyph-name="q" unicode="q" horiz-adv-x="475" 
d="M293 585q0 5 3 6.5t6 1.5h2h119h1l1 -1l-4 -1.5t-9 -4t-10 -5.5t-7 -6q-1 -2 -3 -34.5t-5.5 -84.5t-7 -118l-7 -136l-7 -138l-6.5 -123.5l-5 -92.5t-2 -46v-1v-1h-1h-11h-1q-1 0 -1 2q0 1 -2 34.5l-5 88l-7 124l-8 142.5l-8 143t-7.5 125t-5.5 89.5t-2 36.5zM73 585
q0 10 14 10h236q12 0 12 -10q0 -4 -3.5 -14t-8.5 -10l-236 15q-14 0 -14 9zM72 584q2 6 5 8q2 1 4 1h120l2 -1q-5 -2 -16.5 -6t-13.5 -11q-14 -57 -20 -105.5t-6 -91.5q0 -74 15.5 -129t39.5 -95t51 -67t51 -45l39.5 -29.5t15.5 -20.5q0 -1 -1 -1h-12h-1q-1 0 -1 3
q0 1 -22 10t-54.5 29.5t-70.5 53.5t-70.5 80.5t-54.5 111t-22 144.5q0 74 22 161z" />
    <glyph glyph-name="r" unicode="r" horiz-adv-x="423" 
d="M169 585q0 -2 -2 -28l-5 -67.5l-6.5 -94t-8 -107.5t-8 -107l-6.5 -93l-5 -66.5l-2 -25.5l-1 -2v-1h-1h-11q-1 3 -3 29t-4.5 66.5t-6.5 92t-7.5 105t-7.5 105t-7.5 92t-6 66t-3.5 27.5q-2 2 -6 5t-9 6l-12 6l1 2h119q1 0 5 -1t4 -9zM315 583q0 -4 -3.5 -6.5t-8.5 -2.5
l-186 -14q-5 0 -8.5 9.5t-3.5 13.5q0 5 3.5 7.5t8.5 2.5h186q5 0 8.5 -2.5t3.5 -7.5zM379 585q9 -23 9 -49q0 -30 -9 -61.5t-19.5 -57.5t-19 -42.5t-8.5 -17.5l-1 -2h-1h-11q-1 0 -1 1q0 10 5 29.5t5 46.5q0 12 -3 36t-11.5 49.5t-23.5 46.5t-39 28h-1q0 1 1 1h1h118
q1 0 3 -1q3 -2 6 -7z" />
    <glyph glyph-name="s" unicode="s" horiz-adv-x="439" 
d="M380 585q5 -11 7 -23t2 -24q0 -27 -9 -54t-19.5 -48t-19 -34t-8.5 -14t-1 -2h-11h-1q-1 0 -1 1q0 9 5 25t5 38q0 10 -3 29.5t-11 40.5t-23.5 41t-40.5 32q0 1 1 2h119q1 0 3 -1q3 -2 6 -9zM75 2q-9 22 -9 45q0 28 9 55t19.5 48t19.5 34.5t9 14.5q0 3 1 3h1h12l1 -2
q0 -8 -5.5 -24t-5.5 -39q0 -25 7 -57t37 -69q2 -3 7.5 -6t11.5 -5.5t10.5 -4l4.5 -1.5h-2h-118q-2 0 -4 1q-3 2 -6 7zM327 -6h-184q-3 0 -11 3t-17 7t-16 8t-7 6l38 11q7 -13 19.5 -13.5t19.5 -0.5l173 3zM58 585q1 7 5 9q2 1 4 1h119l1 -2q-7 -2 -13 -5q-5 -2 -9.5 -5.5
t-5.5 -6.5q-14 -42 -20 -73t-6 -54q0 -41 17 -58.5t43 -26t56 -14.5t56 -23.5t43 -54t17 -105.5q0 -34 -4.5 -77t-15.5 -97q0 1 -3 1h-11h-6q5 32 7.5 58t2.5 49q0 55 -12.5 89t-33.5 55t-47.5 32t-54 19l-54 16.5t-47.5 25.5t-33.5 45t-12.5 75q0 49 18 127zM318 584
q0 -9 -13 -9l-184 -14q-5 0 -8.5 9.5t-3.5 13.5t3.5 7.5t8.5 3.5h184q5 0 9 -3.5t4 -7.5z" />
    <glyph glyph-name="t" unicode="t" horiz-adv-x="316" 
d="M77 741q2 6 5 7t4 1h119h1l1 -1q-8 -2 -14 -5q-5 -2 -9.5 -5t-5.5 -6q-20 -89 -29 -164.5t-9 -139.5q0 -109 19 -186.5t42 -129.5t42 -81t19 -42q0 -2 -0.5 -2.5t-0.5 -1.5l-1 -1h-11q-1 -1 -1 0q-1 0 -1 4l-14.5 17.5t-36.5 49.5t-47.5 78.5t-47.5 106t-36.5 131.5
t-14.5 155q0 51 6.5 104.5t20.5 110.5zM276 586q0 -10 -12 -10l-156 -15q-6 0 -9.5 10t-3.5 15q0 9 13 9h156q12 0 12 -9z" />
    <glyph glyph-name="u" unicode="u" horiz-adv-x="499" 
d="M68 586q2 7 6 8t5 1h114l1 -1q0 -1 -11 -5.5t-13 -11.5q-20 -80 -27.5 -144t-7.5 -117q0 -60 9 -105.5t23 -78t29.5 -55.5t29.5 -38.5l23 -26t9 -18.5q0 -1 -1 -1h-1h-12h-1q-1 0 -1 2l-14.5 9t-36.5 27.5t-47.5 48t-47.5 72.5t-36.5 100t-14.5 130q0 45 4 95.5t19 108.5
zM432 586q14 -57 18 -107t4 -95q0 -73 -14.5 -130.5t-36.5 -100.5t-47 -73t-47 -48.5t-36.5 -27.5l-14.5 -9q0 -1 -1 -2h-1h-12h-1q-1 0 -1 3q0 9 9 19l23 26t29.5 38.5t29.5 55.5t23 77.5t9 104.5q0 52 -7.5 116t-27.5 144q-2 8 -12.5 11.5t-10.5 5.5q0 1 1 1h113
q1 0 4.5 -1t6.5 -8z" />
    <glyph glyph-name="v" unicode="v" horiz-adv-x="532" 
d="M140 585q0 -2 5.5 -28t15 -67.5l21.5 -94l24.5 -107.5l24.5 -107l21 -93l15 -66.5l6 -25.5q0 -1 -1 -2v-1h-1h-11l-1 1v2q-1 8 -10.5 37t-24.5 70.5l-34.5 92l-40 102.5l-40 101.5l-35 88l-25.5 62.5t-11 26q-2 3 -6.5 6t-9.5 5.5t-8.5 4l-3.5 1.5l1 1l1 1h119q2 0 4 -1
q5 -3 5 -9zM392 585q0 7 4 9q2 1 5 1h120l1 -2q-7 -3 -13 -6q-5 -2 -9.5 -5t-6.5 -6q-1 -2 -11.5 -28.5l-27 -68l-37.5 -93.5l-42 -106.5l-40.5 -106l-34.5 -92t-22.5 -64.5t-5.5 -24h-11h-1q-1 0 -1 3l6 25.5l15 66.5l21 93l24.5 107l24.5 107.5l21.5 94t15 67.5t5.5 28z
" />
    <glyph glyph-name="w" unicode="w" horiz-adv-x="661" 
d="M164 584q0 -2 -2 -27.5l-5 -66.5t-7.5 -93t-8.5 -106t-8.5 -106t-7.5 -92.5l-5 -65.5l-2 -25l-2 -2h-1h-10h-2q0 6 -1.5 33.5t-4 68.5l-5.5 91t-6.5 102l-7 101.5t-6.5 88t-5.5 63t-3.5 26.5q-3 6 -14 11.5t-14 6.5h2h118q1 0 5 -1t4 -7zM373 584q11 -45 16 -86t5 -81
q0 -69 -14 -127t-36.5 -104.5t-50.5 -81.5t-57 -58.5t-55.5 -35t-45.5 -11.5q-14 0 -16 1t-5 1h-2h-1q-8 -2 -8 3t10 5h5l0.5 -0.5t3.5 -0.5h13q21 0 49.5 25t54 70t43.5 107.5t18 137.5q0 51 -6.5 107t-20.5 119q-2 8 -12.5 12l-15.5 6h1h118q1 0 4 -1t5 -7zM324 2
q0 -2 -2 -2h-2h-10l-2 28t-3.5 64.5l-3 72t-1.5 50.5q0 33 8.5 52.5t16.5 19.5q13 0 13 -40v-12t-1 -13q-3 -28 -5 -62.5l-4 -66.5t-3 -57t-1 -34zM580 584q11 -45 16 -86t5 -81q0 -69 -14 -127t-36.5 -104.5t-50.5 -81.5t-57 -58.5t-55.5 -35t-45.5 -11.5q-14 0 -16 1t-5 1
h-2h-1q-8 -2 -8 3t10 5h5l0.5 -0.5t3.5 -0.5h13q21 0 49.5 25t54 70t43.5 107.5t18 137.5q0 51 -6.5 107t-20.5 119q-2 8 -12.5 12l-15.5 6h1h118q1 0 4 -1t5 -7z" />
    <glyph glyph-name="x" unicode="x" horiz-adv-x="411" 
d="M159 585q0 -35 14.5 -92.5t35.5 -122.5t46.5 -131.5l46.5 -120l35.5 -88l14.5 -34.5q0 -1 -1 -2v-1h-1h-11q0 7 -17 33l-43 67l-58 95t-63 116.5t-58 131.5t-42 140q-4 7 -15 12q-6 3 -13 5q0 1 1 2h119q1 0 5 -1t4 -9zM252 585q0 7 4 9q2 1 5 1h119l1 -2q-7 -2 -13 -5
q-5 -2 -9.5 -5.5t-5.5 -6.5q-14 -69 -39 -136t-55 -128t-61.5 -114l-58 -94.5l-44.5 -69.5t-21 -38v-2q0 -1 -1 -1h-11h-1q-1 0 -1 3l14 33.5l35.5 86l46.5 117.5t46.5 129.5t35.5 121.5t14 94v7z" />
    <glyph glyph-name="y" unicode="y" horiz-adv-x="465" 
d="M58 584q2 6 5 7t4 1h118h1q0 -1 -4 -2t-9 -3.5t-9.5 -5t-5.5 -6.5q-16 -65 -18 -119.5t-2 -100.5q0 -68 11.5 -119t28 -88.5t36.5 -63t36.5 -42.5l28 -28.5t11.5 -20.5q0 -1 -1 -2h-1h-11q-1 2 -18.5 11.5t-43.5 29.5t-56 51.5t-55.5 77t-42.5 106.5t-17 139q0 40 0.5 84
t13.5 94zM402 585q12 -48 12.5 -93t0.5 -90q0 -90 -19.5 -170t-49 -148t-64 -122.5t-64 -93t-49.5 -60t-20 -23.5h-12h-1q-1 0 -1 1q0 9 14 28t34.5 50t44.5 74t44.5 100t34.5 128.5t14 158.5q0 57 -2 119t-18 132q-1 3 -5 6.5t-9 5.5q-6 3 -13 5q0 1 1 2h118q2 0 4 -1
q4 -2 5 -9z" />
    <glyph glyph-name="z" unicode="z" horiz-adv-x="450" 
d="M59 585q1 7 6 9q2 1 4 1h119l1 -2h-1q-25 -11 -40 -31t-23.5 -42t-11.5 -41.5t-3 -29.5q0 -21 4 -36.5t7 -24.5q0 -1 -1 -2h-1h-12h-1q-1 0 -1 2q0 1 -8.5 14.5t-19 34.5t-19 48t-8.5 54q0 23 9 46zM387 2q-3 -5 -6 -7q-2 -1 -3 -1h-119h-2l3.5 1.5t8 4l9.5 5.5t7 6
q30 38 40.5 69.5t10.5 57.5q0 22 -5.5 38t-5.5 24v2h1h12h1v-1q0 -1 1 -2q0 -1 8.5 -14.5t19 -34.5t19.5 -48t9 -54q0 -24 -9 -46zM98 18l172 -3h8q8 0 17 2t15 12l38 -11q0 -2 -7 -6t-16 -8t-17 -7t-11 -3h-185zM382 585q18 -78 18 -127q0 -47 -12.5 -75t-33.5 -45
t-47.5 -26t-54.5 -17t-54.5 -19t-47.5 -32t-33.5 -55.5t-12.5 -89.5q0 -23 2.5 -49t7.5 -56v-1h-1h-3q-1 0 -2 1h-10q0 -1 -1 -1h-2v1q-11 54 -15.5 96t-4.5 76q0 69 17 105.5t43 54.5t55.5 24t55.5 14.5t43 26t17 58.5q0 23 -6 54t-20 73q-4 7 -15 12q-6 3 -13 5l1 1l1 1
h119q2 0 4 -1q4 -2 5 -9zM123 584q0 4 3.5 7.5t8.5 3.5h184q5 0 9 -3.5t4 -7.5t-4 -13.5t-9 -9.5l-184 14q-5 0 -8.5 2.5t-3.5 6.5z" />
    <glyph glyph-name="three" unicode="3" horiz-adv-x="408" 
d="M87 -14q0 -1 -1 -1h-3q-2 0 -2 3q7 6 24 19t38 33t43.5 46.5t41.5 60t31 73.5t12 86q0 15 -2.5 41.5t-9.5 54.5t-19.5 50.5t-32.5 28.5q-1 0 -1 1h1h119q1 0 3 -1q3 -2 6 -7q12 -35 17.5 -67t5.5 -61q0 -60 -20 -110t-50 -90t-65 -70t-65 -50t-50.5 -30zM327 741
q26 -77 26 -130q0 -47 -17 -75t-42 -43t-53.5 -19.5t-50.5 -4.5h-55l-1 1q23 9 46.5 16t42.5 18.5t31 30t12 50.5q0 26 -9.5 62t-31.5 85q-3 7 -13 11l-15 6l2 1h118q2 0 4 -1q3 -1 6 -8zM264 740q0 -9 -10 -9l-138 -15q-4 0 -6.5 10t-2.5 14q0 10 9 10h138q10 0 10 -10z
M59 742q1 5 6 7q2 1 3 1h119h1l-12 -6q-10 -5 -16 -11q-30 -38 -40 -67.5t-10 -52.5q0 -19 4 -32.5t6 -22.5q0 -1 -1 -2h-1h-11h-1q-1 0 -1 3q0 1 -8.5 12.5t-19 30t-19 43t-8.5 51.5q0 23 9 46z" />
    <glyph glyph-name="quoteright" unicode="&#x2019;" horiz-adv-x="349" 
d="M224 841q9 -23 9 -51q0 -31 -8.5 -64t-19 -60.5t-19 -45.5t-8.5 -19t-1 -2h-12h-1q-1 0 -1 2q3 9 7 30.5t4 50.5q0 16 -3 40t-11.5 49t-23.5 46t-40 31l1 1h118q1 0 3 -1q3 -2 6 -7z" />
    <glyph glyph-name="quotedblright" unicode="&#x201d;" horiz-adv-x="337" 
d="M128 841q9 -23 9 -51q0 -31 -8.5 -64t-19 -60.5t-19 -45.5t-8.5 -19t-1 -2h-12h-1q-1 0 -1 2q3 9 7 30.5t4 50.5q0 16 -3 40t-11.5 49t-23.5 46t-40 31l1 1h118q1 0 3 -1q3 -2 6 -7zM328 841q9 -23 9 -51q0 -31 -8.5 -64t-19 -60.5t-19 -45.5t-8.5 -19t-1 -2h-12h-1
q-1 0 -1 2q3 9 7 30.5t4 50.5q0 16 -3 40t-11.5 49t-23.5 46t-40 31l1 1h118q1 0 3 -1q3 -2 6 -7z" />
    <glyph glyph-name="quotedblleft" unicode="&#x201c;" horiz-adv-x="337" 
d="M209 841q3 5 6 7q2 1 3 1h118l1 -1q-25 -10 -40 -31t-23.5 -46t-11.5 -49t-3 -40q0 -29 4 -50.5t7 -30.5q0 -1 -1 -2h-1h-12h-1v2q0 1 -8.5 19t-19 45.5t-19 60.5t-8.5 64q0 28 9 51zM9 841q3 5 6 7q2 1 3 1h118l1 -1q-25 -10 -40 -31t-23.5 -46t-11.5 -49t-3 -40
q0 -29 4 -50.5t7 -30.5q0 -1 -1 -2h-1h-12h-1v2q0 1 -8.5 19t-19 45.5t-19 60.5t-8.5 64q0 28 9 51z" />
    <glyph glyph-name="quoteleft" unicode="&#x2018;" horiz-adv-x="347" 
d="M105 841q3 5 6 7q2 1 3 1h118l1 -1q-25 -10 -40 -31t-23.5 -46t-11.5 -49t-3 -40q0 -29 4 -50.5t7 -30.5q0 -1 -1 -2h-1h-12h-1v2q0 1 -8.5 19t-19 45.5t-19 60.5t-8.5 64q0 28 9 51z" />
    <glyph glyph-name="quotesingle" unicode="'" horiz-adv-x="117" 
d="M118 841q9 -23 9 -51q0 -31 -8.5 -64t-19 -60.5t-19 -45.5t-8.5 -19t-1 -2h-12h-1q-1 0 -1 2q3 9 7 30.5t4 50.5q0 16 -3 40t-11.5 49t-23.5 46t-40 31l1 1h118q1 0 3 -1q3 -2 6 -7z" />
    <glyph glyph-name="quotedbl" unicode="&#x22;" horiz-adv-x="457" 
d="M173 841q9 -23 9 -51q0 -31 -8.5 -64t-19 -60.5t-19 -45.5t-8.5 -19t-1 -2h-12h-1q-1 0 -1 2q3 9 7 30.5t4 50.5q0 16 -3 40t-11.5 49t-23.5 46t-40 31l1 1h118q1 0 3 -1q3 -2 6 -7zM373 841q9 -23 9 -51q0 -31 -8.5 -64t-19 -60.5t-19 -45.5t-8.5 -19t-1 -2h-12h-1
q-1 0 -1 2q3 9 7 30.5t4 50.5q0 16 -3 40t-11.5 49t-23.5 46t-40 31l1 1h118q1 0 3 -1q3 -2 6 -7z" />
    <glyph glyph-name="comma" unicode="," horiz-adv-x="137" 
d="M128 91q9 -23 9 -51q0 -31 -8.5 -64t-19 -60.5t-19 -45.5t-8.5 -19t-1 -2h-12h-1q-1 0 -1 2q3 9 7 30.5t4 50.5q0 16 -3 40t-11.5 49t-23.5 46t-40 31l1 1h118q1 0 3 -1q3 -2 6 -7z" />
    <glyph glyph-name="exclam" unicode="!" horiz-adv-x="200" 
d="M150 726q0 -2 -2 -27l-5 -65l-6.5 -90.5l-7.5 -103.5l-7.5 -103.5l-6.5 -90l-5 -64l-2 -24.5l-1 -2v-1h-1h-10h-1q-1 0 -1 2q0 8 -2 36t-4.5 68.5t-6 89.5l-7 99t-7.5 97l-7 84.5l-5 60.5t-3 25q-3 6 -12 10t-14 6q-1 0 -1 0.5t1 0.5h1h114q3 0 5 -1q4 -2 4 -7zM155 90
q-4 -12 -12.5 -27t-17 -28.5t-15.5 -22.5t-8 -10l-1 -1q-1 0 -2 1l-15 20l-18 25t-15.5 25.5t-6.5 20.5q0 6 6 6h98q1 0 4 -0.5t3 -8.5z" />
    <glyph glyph-name="at" unicode="@" horiz-adv-x="450" 
 />
    <glyph glyph-name="question" unicode="?" horiz-adv-x="441" 
d="M57 740q3 5 6 7q2 1 4 1h113q0 -1 1 -1q-5 -2 -13 -6.5t-13 -9.5q-26 -33 -36.5 -68.5t-11.5 -67t3 -55.5t7 -33q0 -1 -1 -2h-1h-10h-1q-1 0 -1 2l-6 12t-13.5 31t-16 43t-13.5 50t-5.5 51t8.5 46zM220 174q-8 89 -4 145.5t15 92t26.5 54.5t29.5 33t24 27.5t11 37t-11 63
t-41 104.5q-3 6 -11.5 10t-13.5 6h-1l1 1h115q1 0 3 -1q3 -2 6 -7q19 -76 22.5 -123t-3.5 -76t-22.5 -45t-34 -30t-37.5 -31t-33 -48t-21 -81.5t-1 -131.5h-19zM118 739q0 9 13 9h177q12 0 12 -9q0 -4 -3.5 -13.5t-8.5 -9.5l-177 14q-13 0 -13 9zM283 103q-4 -12 -12.5 -27
t-17 -28.5t-15.5 -22.5t-8 -10l-1 -1q-1 0 -2 1l-15 20l-18 25t-15.5 25.5t-6.5 20.5q0 6 6 6h98q1 0 4 -0.5t3 -8.5z" />
    <glyph glyph-name="period" unicode="." horiz-adv-x="174" 
d="M147 91q-4 -12 -12.5 -27t-17 -28.5t-15.5 -22.5t-8 -10l-1 -1q-1 0 -2 1l-15 20l-18 25t-15.5 25.5t-6.5 20.5q0 6 6 6h98q1 0 4 -0.5t3 -8.5z" />
    <glyph glyph-name="hyphen" unicode="-" horiz-adv-x="551" 
d="M82 436q1 0 20 -0.5t50.5 -1.5t71.5 -2.5t82 -3.5t83 -4.5t74 -5.5q11 -1 23 -4.5t13 -5.5q0 -1 -4 -2t-10 -2l-12.5 -2t-10.5 -1q-50 -4 -115 -8l-125 -8q-70 -4 -142 -9q-3 0 -3 4v51q0 5 5 5z" />
    <glyph glyph-name="equal" unicode="=" horiz-adv-x="573" 
d="M100 460q1 0 19 -0.5t47 -1.5t66.5 -2.5t77.5 -3.5t79.5 -4.5t72.5 -5.5q11 -1 23 -4.5t13 -5.5q0 -1 -4 -2t-10 -2l-12.5 -2t-10.5 -1q-50 -4 -112.5 -8t-118.5 -8q-65 -4 -132 -9q-3 0 -3 4v51q0 5 5 5zM99 307q1 0 19 -0.5t47 -1.5t66.5 -2.5t77.5 -3.5t79.5 -4.5
t72.5 -5.5q11 -1 23 -4.5t13 -5.5q0 -1 -4 -2t-10 -2l-12.5 -2t-10.5 -1q-50 -4 -112.5 -8t-118.5 -8q-65 -4 -132 -9q-3 0 -3 4v51q0 5 5 5z" />
    <glyph glyph-name="dollar" unicode="$" horiz-adv-x="450" 
d="M77 1q-5 11 -7 24t-2 27q0 31 6.5 64t15 60t15 44.5t6.5 18.5v3h1h12h1l1 -2q0 -8 -5.5 -30.5t-5.5 -52.5q0 -16 3 -40t11 -48.5t23.5 -45.5t39.5 -30l-1 -1h-106q-1 0 -3 1q-4 2 -5 8zM377 745q9 -23 9 -51q0 -31 -8.5 -64t-19 -60.5t-19 -45.5t-8.5 -19t-1 -2h-12h-1
q-1 0 -1 2q3 9 7 30.5t4 50.5q0 16 -3 40t-11.5 49t-23.5 46t-40 31l1 1h118q1 0 3 -1q3 -2 6 -7zM349 -8h-193q-2 0 -10 3t-16.5 7l-15.5 7.5t-7 5.5l36 12q7 -13 21 -13.5t19 -0.5l188 4zM57 745q1 5 6 7q2 1 3 1h118l1 -1q-8 -2 -13 -5q-13 -5 -14 -11q-14 -42 -20 -75
t-6 -59q0 -48 19 -77t47 -51t61.5 -43t61.5 -52t47 -78.5t19 -122.5q0 -36 -4 -79.5t-15 -96.5q-3 -7 -11 -9q-4 -1 -8 -1l6 10q-1 -1 -2 -1h-4q-1 0 -1 1q5 31 7 58t2 51q0 77 -23.5 126t-58.5 82t-76.5 58t-76.5 55t-58.5 72.5t-23.5 110.5q0 27 4 59.5t13 70.5zM315 744
q0 -10 -13 -10l-182 -14q-5 0 -9 9.5t-4 14.5q0 4 4 6.5t9 2.5h182q13 0 13 -9zM265 851q2 0 5 -1q5 -3 5 -9l-2 -39.5t-5 -105l-6.5 -149t-8 -170.5t-8 -171t-6.5 -149.5l-5 -106t-2 -41.5t-1 -2v-1h-5v945h39zM227 851v-945h-5h-1q-1 0 -1 3q0 1 -2 41l-5 105l-7 148
l-8 169.5l-8 170l-7 149t-5.5 106t-2.5 42.5q0 8 5 10q3 1 6 1h41z" />
    <glyph glyph-name="asterisk" unicode="*" horiz-adv-x="381" 
d="M166 646q0 5 5 5h51q4 0 4 -3q0 6 -1 -9t-3.5 -44t-5 -68l-5 -81t-5.5 -84t-5 -77q0 -5 -1 -11l-2 -12t-2 -10t-2 -4q-2 1 -5.5 13t-4.5 23q-3 33 -5.5 72.5t-4.5 79.5t-3.5 77.5t-2.5 66.5t-1.5 47t-0.5 19zM31 555q-6 5 -1 7l18 24t8.5 11t3 3.5l1.5 1.5q2 4 5 2
q-5 3 6 -7l32.5 -29l51 -45l61 -54l63.5 -56l58 -51q6 -7 16 -17t9 -12q-2 -1 -14 4t-22 11l-60 40l-65 45l-63.5 44.5l-54.5 38.5l-38.5 27.5t-14.5 11.5zM359 555q-1 -1 -15 -11.5l-38 -27.5l-54.5 -38.5l-63.5 -44.5l-65.5 -45l-59.5 -40q-10 -6 -22 -11t-14 -4
q-1 2 9 12t16 17l58 51l63.5 56l61 54l51 45l32.5 29t6 7q3 2 5 -2l1.5 -1.5t3 -3.5t8.5 -11l18 -24q5 -2 -1 -7z" />
    <glyph glyph-name="plus" unicode="+" horiz-adv-x="590" 
d="M105 459q1 0 19 -0.5t47 -1.5t66.5 -2.5t77.5 -3.5t79.5 -4.5t72.5 -5.5q11 -1 23 -4.5t13 -5.5q0 -1 -4 -2t-10 -2l-12.5 -2t-10.5 -1q-35 -2 -77 -5t-84 -5.5l-81 -5t-68 -5t-44 -3.5t-9 -1q-3 0 -3 4v51q0 5 5 5zM312 603q0 -1 -0.5 -19t-1.5 -47t-2.5 -66.5
t-3.5 -77.5t-4.5 -79.5t-5.5 -72.5q-1 -11 -4.5 -23t-5.5 -13q-1 0 -2 4t-2 10l-2 12t-1 11q-2 35 -5 77t-5.5 84l-5 81t-5 68t-3.5 44t-1 9q0 3 4 3h51q5 0 5 -5z" />
    <glyph glyph-name="underscore" unicode="_" horiz-adv-x="634" 
d="M133 -83q1 0 19 -0.5t47 -1.5t66.5 -2.5t77.5 -3.5t79.5 -4.5t72.5 -5.5q11 -1 23 -4.5t13 -5.5q0 -1 -4 -2t-10 -2l-12.5 -2t-10.5 -1q-35 -2 -77 -5t-84 -5.5l-81 -5t-68 -5t-44 -3.5t-9 -1q-3 0 -3 4v51q0 5 5 5z" />
    <glyph glyph-name="minus" unicode="&#x2212;" horiz-adv-x="597" 
d="M125 459q1 0 30 -1.5t73 -3.5t97 -5.5t103 -7.5q11 -1 23 -4.5t13 -5.5q0 -1 -4 -2t-10 -2l-12.5 -2t-10.5 -1q-52 -3 -109.5 -7.5t-103.5 -8.5l-73 -6.5t-18 -2.5q-3 0 -3 4v51q0 5 5 5z" />
    <glyph glyph-name="endash" unicode="&#x2013;" horiz-adv-x="450" 
d="M68 436q1 0 31.5 -1.5t76 -3.5t100 -5.5t104.5 -7.5q11 -1 23 -4.5t13 -5.5q0 -1 -4 -2t-10 -2l-12.5 -2t-10.5 -1l-104.5 -8t-101.5 -8q-55 -4 -107 -9q-3 0 -3 4v51q0 5 5 5z" />
    <glyph glyph-name="emdash" unicode="&#x2014;" horiz-adv-x="614" 
d="M49 436q1 0 28.5 -0.5t71.5 -1.5t98.5 -2.5t109 -3.5t103.5 -4.5t82 -5.5q11 -1 23 -4.5t13 -5.5q0 -1 -4 -2t-10 -2l-12.5 -2t-10.5 -1q-25 -2 -59 -4t-73.5 -4l-81.5 -4l-82 -4q-94 -4 -198 -9q-3 0 -3 4v51q0 5 5 5z" />
    <glyph glyph-name="numbersign" unicode="#" horiz-adv-x="564" 
d="M110 460q1 0 19 -0.5t47 -1.5t66.5 -2.5t77.5 -3.5t79.5 -4.5t72.5 -5.5q11 -1 23 -4.5t13 -5.5q0 -1 -4 -2t-10 -2l-12.5 -2t-10.5 -1q-50 -4 -112.5 -8t-118.5 -8q-65 -4 -132 -9q-3 0 -3 4v51q0 5 5 5zM109 317q1 0 19 -0.5t47 -1.5t66.5 -2.5t77.5 -3.5t79.5 -4.5
t72.5 -5.5q11 -1 23 -4.5t13 -5.5q0 -1 -4 -2t-10 -2l-12.5 -2t-10.5 -1q-50 -4 -112.5 -8t-118.5 -8q-65 -4 -132 -9q-3 0 -3 4v51q0 5 5 5zM382 546q0 -1 -0.5 -19t-1.5 -47t-2.5 -66.5t-3.5 -77.5t-4.5 -79.5t-5.5 -72.5q-1 -11 -4.5 -23t-5.5 -13q-1 0 -2 4t-2 10l-2 12
t-1 11q-4 49 -8 112t-8 119q-4 65 -9 132q0 3 4 3h51q5 0 5 -5zM239 547q0 -1 -0.5 -19t-1.5 -47t-2.5 -66.5t-3.5 -77.5t-4.5 -79.5t-5.5 -72.5q-1 -11 -4.5 -23t-5.5 -13q-1 0 -2 4t-2 10l-2 12t-1 11q-4 49 -8 112t-8 119q-4 65 -9 132q0 3 4 3h51q5 0 5 -5z" />
    <glyph glyph-name="cent" unicode="&#xa2;" horiz-adv-x="645" 
d="M446 598q0 -9 -12 -9l-184 -14q-5 0 -9.5 9.5t-4.5 13.5t4.5 7.5t9.5 3.5h184q5 0 8.5 -3.5t3.5 -7.5zM193 599q1 7 6 9q2 1 3 1h119l1 -1q-7 -3 -13 -6q-13 -5 -16 -12q-14 -57 -20 -105t-6 -90q0 -74 16 -129t39.5 -95t51.5 -67t51.5 -45l39.5 -30t16 -21q0 -1 -1 -2
h-1h-11h-2q-1 0 -1 2l-21.5 9.5t-54.5 30.5t-70.5 54t-70.5 81t-54.5 111t-21.5 145q0 36 5 75.5t16 84.5zM512 601q9 -23 9 -49q0 -30 -9 -61.5t-19.5 -57.5t-19 -42.5t-8.5 -17.5t-1 -2h-1h-11l-1 1q0 10 5 29.5t5 46.5q0 12 -3 36t-11.5 49.5t-23.5 46.5t-39 28h-1l1 1h1
h118q1 0 3 -1q3 -2 6 -7zM398 698q2 0 5 -1q5 -3 5 -9l-2 -32.5t-5 -86.5l-6.5 -122.5t-8 -140t-8 -140.5l-6.5 -123l-5 -87.5t-2 -34.5t-1 -2v-1h-5v780h39zM360 698v-780h-5h-1q-1 0 -1 3q0 1 -2 33.5t-5 86l-7 122l-8 139.5l-8 139.5l-7 122.5t-5.5 87.5t-2.5 35.5
q0 8 5 10q3 1 6 1h41z" />
    <glyph glyph-name="fl" unicode="&#xfb02;" horiz-adv-x="564" 
d="M370 740q0 -9 -14 -9l-184 -15q-5 0 -9 10t-4 14q0 9 13 9h184q14 0 14 -9zM81 741q2 6 5.5 7t4.5 1h119h1l-4 -1.5l-9 -3.5t-9 -5t-5 -7q-15 -65 -24.5 -122t-9.5 -108q0 -86 16 -167t39.5 -153t51.5 -132.5t52.5 -106.5l41.5 -75.5t19 -38.5q0 -1 -1 -2h-1h-11
q-1 2 -23 33t-55 84t-71.5 124t-71 153.5t-54.5 172.5t-22 180q0 40 5 81t16 86zM275 391q0 -4 -3.5 -6.5t-8.5 -2.5l-156 -17q-5 0 -8.5 11t-3.5 15q0 9 12 9h156q5 0 8.5 -2.5t3.5 -6.5zM338 741q1 5 5 7q2 1 4 1h118h1l1 -1q-7 -2 -13 -5q-5 -2 -9.5 -5t-5.5 -6
q-20 -90 -29 -165t-9 -140q0 -108 18.5 -185.5t41 -129t41.5 -81t19 -42.5v-3q0 -1 -1 -2h-11v1q0 1 -2 3l-14.5 17t-36 49.5t-47 79t-47.5 106t-36.5 131.5t-15.5 155q-1 51 6.5 104t21.5 111z" />
    <glyph glyph-name="fi" unicode="&#xfb01;" 
d="M371 740q0 -9 -14 -9l-184 -15q-5 0 -9 10t-4 14q0 9 13 9h184q14 0 14 -9zM82 741q2 6 5.5 7t4.5 1h119h1l-4 -1.5l-9 -3.5t-9 -5t-5 -7q-15 -65 -24.5 -122t-9.5 -108q0 -86 16 -167t39.5 -153t51.5 -132.5t52.5 -106.5l41.5 -75.5t19 -38.5q0 -1 -1 -2h-1h-11
q-1 2 -23 33t-55 84t-71.5 124t-71 153.5t-54.5 172.5t-22 180q0 40 5 81t16 86zM276 391q0 -4 -3.5 -6.5t-8.5 -2.5l-156 -17q-5 0 -8.5 11t-3.5 15q0 9 12 9h156q5 0 8.5 -2.5t3.5 -6.5zM449 586q0 -2 -2 -28l-5 -67.5l-7 -94.5l-8 -107.5l-8 -107l-7 -93.5l-5 -66.5
l-2 -25.5q0 -1 -1 -2h-1h-11q0 1 -2 26.5l-5 66t-7.5 92t-8.5 105.5l-8 105.5t-7.5 92.5t-5 66.5t-1.5 27.5q-5 8 -15.5 12.5t-11.5 4.5q0 1 1 2h119q2 0 4 -1q5 -3 5 -8zM448 740q-4 -12 -12.5 -31l-17 -37t-15.5 -31t-8 -14l-1 -1q-1 0 -2 1q-6 8 -15 24l-18 33.5
t-15.5 34t-6.5 24.5q0 6 6 6h98q1 0 4 -0.5t3 -8.5z" />
    <glyph glyph-name="slash" unicode="/" horiz-adv-x="530" 
d="M477 697q0 -2 -21 -38.5l-54.5 -94.5l-75.5 -130l-85 -143.5l-82 -135.5t-67 -106q-5 -7 -11 -14.5t-12 -13.5t-11 -10t-7 -4q-1 0 0.5 6.5t4.5 15t6.5 17.5t5.5 15l39 82l49 102l54.5 112l55.5 113l133 272q2 7 7 2q2 -2 3 -2t6.5 -3l18.5 -10l40 -22q2 -2 5 -3.5
t-2 -6.5z" />
    <glyph glyph-name="ampersand" unicode="&#x26;" horiz-adv-x="484" 
d="M357 1q-3 -7 -5 -8t-3 -1h-106l-1 1q24 9 42.5 33t30.5 52.5t18 55.5t6 43q0 15 -1 37.5l-2 44.5t-2 39.5t-1 21.5q0 2 1 2h1h8v-1q0 -1 1 -2q0 -1 9 -23.5t18 -58t15 -79t0 -86.5q-1 -7 -5 -16.5l-8.5 -20l-8.5 -19.5t-7 -15zM44 17l207 -4h8q8 0 15 2t12 12l41 -12
q0 -2 -7 -5.5l-15.5 -7.5t-16.5 -7t-10 -3h-213zM337 745q9 -38 13 -71t4 -59q0 -69 -23.5 -123.5t-58.5 -100.5t-74.5 -88.5t-71.5 -87.5t-50.5 -96.5t-9.5 -116.5q0 -1 -1 -1h-4q-1 0 -2 1l6 -10q-4 0 -8 1q-3 1 -6.5 3t-4.5 6q-13 66 -2 121.5t35 104t55.5 93t60 90.5
t48 95.5t19.5 108.5q0 42 -6 70t-20 51q-4 6 -15 11q-5 3 -12 5l1 1h118q1 0 3 -1q3 -2 6 -7zM48 744q0 9 13 9h213q5 0 9 -2.5t4 -6.5q0 -5 -4 -14.5t-9 -9.5l-213 14q-13 0 -13 10zM43 742q2 6 5.5 7t4.5 1h150h1l-8 -2t-18.5 -4t-20 -5t-11.5 -6q-23 -35 -29.5 -75.5
t-4.5 -94.5q2 -46 28.5 -93.5t62.5 -99.5l91.5 -132.5l77.5 -114l55 -84t26 -42.5q0 -2 -1 -2h-1h-1h-8q-1 2 -28 31.5l-68 76l-90 104t-92 114.5l-47 61.5t-41.5 60.5t-30.5 60t-13 62q-2 40 -1 86t12 91z" />
    <glyph glyph-name="percent" unicode="%" 
d="M570 695q-1 0 -17.5 -29.5l-44 -78l-63 -110.5l-73 -127l-75 -127l-68.5 -110.5t-54 -78t-31 -29.5l-1 1q0 2 2 9t5 15l6 16l5 13l38.5 82l48.5 102l54.5 112l55.5 113l134 272q1 4 3 4t4 -2t3 -2t6.5 -3l18.5 -10l40 -22q2 -2 3.5 -3t1.5 -3t-2 -4zM277 562
q-4 -12 -12.5 -27t-17 -28.5t-15.5 -22.5t-8 -10l-1 -1q-1 0 -2 1l-15 20l-18 25t-15.5 25.5t-6.5 20.5q0 6 6 6h98q1 0 4 -0.5t3 -8.5zM531 208q-4 -12 -12.5 -27t-17 -28.5t-15.5 -22.5t-8 -10l-1 -1q-1 0 -2 1l-15 20l-18 25t-15.5 25.5t-6.5 20.5q0 6 6 6h98q1 0 4 -0.5
t3 -8.5z" />
    <glyph glyph-name="colon" unicode=":" horiz-adv-x="252" 
d="M174 447q-4 -12 -12.5 -27t-17 -28.5t-15.5 -22.5t-8 -10l-1 -1q-1 0 -2 1l-15 20l-18 25t-15.5 25.5t-6.5 20.5q0 6 6 6h98q1 0 4 -0.5t3 -8.5zM169 105q-4 -12 -12.5 -27t-17 -28.5t-15.5 -22.5t-8 -10l-1 -1q-1 0 -2 1l-15 20l-18 25t-15.5 25.5t-6.5 20.5q0 6 6 6h98
q1 0 4 -0.5t3 -8.5z" />
    <glyph glyph-name="semicolon" unicode=";" horiz-adv-x="250" 
d="M182 91q-3 5 -6 7q-2 1 -3 1h-118l-1 -1q25 -10 40 -31t23.5 -46t11.5 -49t3 -40q0 -29 -4 -50.5t-7 -30.5q0 -2 1 -2h1h12q1 1 1 2t8.5 19t19 45.5t19 60.5t8.5 64q0 28 -9 51zM171 447q-4 -12 -12.5 -27t-17 -28.5t-15.5 -22.5t-8 -10l-1 -1q-1 0 -2 1l-15 20l-18 25
t-15.5 25.5t-6.5 20.5q0 6 6 6h98q1 0 4 -0.5t3 -8.5z" />
    <glyph glyph-name="backslash" unicode="\" horiz-adv-x="500" 
d="M36 697q-5 5 -2 6.5t5 3.5l40 22l18.5 10t6.5 3t3 2q5 5 7 -2l133 -272l55.5 -113l54.5 -112l49 -102l39 -82q2 -6 5.5 -15t6.5 -17.5t4.5 -15t0.5 -6.5q-2 0 -7 4t-11 10t-12.5 13.5t-10.5 14.5q-28 42 -67 106l-82 135.5l-85 143.5l-75.5 130l-54.5 94.5t-21 38.5z" />
    <glyph glyph-name="fraction" unicode="&#x2044;" horiz-adv-x="530" 
d="M477 697q0 -2 -21 -38.5l-54.5 -94.5l-75.5 -130l-85 -143.5l-82 -135.5t-67 -106q-5 -7 -11 -14.5t-12 -13.5t-11 -10t-7 -4q-1 0 0.5 6.5t4.5 15t6.5 17.5t5.5 15l39 82l49 102l54.5 112l55.5 113l133 272q2 7 7 2q2 -2 3 -2t6.5 -3l18.5 -10l40 -22q2 -2 5 -3.5
t-2 -6.5z" />
    <glyph glyph-name="multiply" unicode="&#xd7;" horiz-adv-x="399" 
d="M337 570l-13.5 -12.5l-34.5 -32.5l-48.5 -45.5l-57.5 -52l-59.5 -53l-54.5 -47.5q-8 -7 -19.5 -13.5t-13.5 -5.5q-1 0 1.5 4t6 9l7 10l6.5 9l51 57.5l56 63.5l53.5 61l44.5 51l28.5 33.5t5.5 7.5q3 2 5 -1l1.5 -1.5l3.5 -3.5l10 -10l21 -21q5 -2 0 -7zM55 570q-5 5 0 7
l21 21l10 10t3 3.5t2 1.5q2 3 5 1q-4 4 5.5 -7.5l28.5 -33.5l44.5 -51l53.5 -61l56 -63.5l51 -57.5q5 -8 13.5 -19.5t7.5 -12.5q-2 -1 -13.5 5.5t-19.5 13.5l-54.5 47l-59.5 53l-57.5 52.5l-48.5 45.5l-34.5 32t-13.5 13z" />
    <glyph glyph-name="bullet" unicode="&#x2022;" horiz-adv-x="279" 
d="M175 341q-4 -12 -12.5 -27t-17 -28.5t-15.5 -22.5t-8 -10l-1 -1q-1 0 -2 1l-15 20l-18 25t-15.5 25.5t-6.5 20.5q0 6 6 6h98q1 0 4 -0.5t3 -8.5z" />
    <glyph glyph-name="zero" unicode="0" horiz-adv-x="508" 
d="M430 741q28 -113 28 -216q0 -83 -14.5 -154.5t-36.5 -131t-47.5 -106t-48 -79t-37.5 -50.5t-15 -20h-12l-1 1q0 8 9 23.5t22 40t29 58.5t29 80.5t22 105.5t9 133q0 64 -9 140t-29 166q-2 7 -12.5 11l-15.5 6l2 1h119q2 0 4 -1q3 -2 5 -8zM78 741q2 6 5 8q2 1 4 1h119
l1 -1q-7 -2 -13 -5q-5 -2 -9.5 -5.5t-5.5 -6.5q-21 -91 -30 -167t-9 -141q0 -108 19 -185t41.5 -128.5t41.5 -80.5t19 -42q0 -1 -0.5 -1.5t-0.5 -1.5v-1q-1 -1 -1 0h-11q-1 2 -16 20t-37 50t-47.5 78.5t-47 106t-36 131t-14.5 154.5q0 51 6.5 105t21.5 112zM368 740
q0 -9 -13 -9l-185 -15q-5 0 -8.5 10t-3.5 14q0 10 12 10h185q13 0 13 -10zM295 567q2 -1 4 -1q2 -1 3.5 -1t1.5 -2l-3.5 -30.5t-8 -76t-10.5 -99t-10.5 -99.5t-8 -77l-3.5 -31q0 -1 -1 -2h-1h-5v419h42zM255 567v-419h-6h-1v2l-3.5 30.5t-8 75.5t-10.5 98t-10.5 98.5
t-8 76.5t-3.5 33t5 4q2 1 5 1h41z" />
    <glyph glyph-name="one" unicode="1" horiz-adv-x="302" 
d="M251 741q0 -2 -2 -35l-5 -86l-7 -120.5l-8 -137.5l-8 -137l-7 -119.5t-5 -84.5t-2 -33l-1 -2h-1h-12h-1v1v1q-1 8 -3 44l-5 89l-6.5 118.5l-7 132.5l-7 131l-6.5 114l-5 81.5t-3 33.5q-2 8 -2 12q0 3 4.5 4.5t11.5 2t13.5 0t11.5 -0.5h39t18.5 -1t5.5 -2.5v-5.5zM231 709
q-12 -33 -39.5 -54.5t-56 -34.5t-50.5 -19t-23 -7l-2 -1h-1l-8 9q-1 0 -1 1t1 2q9 6 24 15t30.5 25.5t27.5 41.5t15 61q0 1 3 1q5 0 18 -4.5l27 -9.5q16 -6 34 -14q0 -1 1 -2q0 -1 0.5 -1.5t0.5 -2.5q0 -4 -1 -6z" />
    <glyph glyph-name="two" unicode="2" horiz-adv-x="449" 
d="M59 742q1 5 6 7q2 1 3 1h120h1q-6 -3 -11 -6q-5 -2 -10 -5t-7 -6q-30 -38 -40 -67.5t-10 -52.5q0 -19 5 -33t5 -23q0 -1 -1 -1h-1h-11h-1q-1 0 -1 3q0 1 -9 12.5t-19.5 30t-19 43t-8.5 51.5q0 23 9 46zM124 741q0 9 13 9h185q12 0 12 -9q0 -4 -3.5 -14t-8.5 -10l-185 15
q-13 0 -13 9zM378 742q11 -45 16 -86.5t5 -81.5q0 -90 -21.5 -168t-54 -142.5t-70.5 -115.5t-71 -86.5t-55 -55t-23 -21.5h-11h-1q-1 0 -1 2q0 10 16 27.5t39.5 46t51 68.5t51 93.5t39.5 122.5t16 156q0 51 -6.5 108.5t-21.5 123.5q-1 3 -5.5 6t-9.5 5q-6 3 -13 5l1 1h1h118
q1 0 4.5 -1t5.5 -7zM96 -15q2 0 -0.5 0t-2.5 1l2 1q12 6 16.5 10t5.5 7t1 4.5t3 1.5l189 -5q3 0 6.5 2.5t6.5 5.5t5 4.5t2 -0.5t-3 -7.5t-6.5 -11t-7.5 -9.5t-7 -4h-210zM386 -6q-3 -7 -5 -8t-3 -1h-95l-1 1q24 9 39 25.5t23.5 35.5t11 38.5t2.5 35.5q0 30 -5.5 52.5
t-5.5 30.5q0 2 1 2h1h12v-1q0 -1 1 -2q0 -1 5 -14t11.5 -34.5t11.5 -50t5 -59.5q0 -14 -2 -27t-7 -24z" />
    <glyph glyph-name="dagger" unicode="&#x2020;" horiz-adv-x="559" 
d="M449 440q9 -23 9 -50q0 -32 -8.5 -52.5t-18.5 -33t-18.5 -18t-9.5 -5.5q-4 -2 -9.5 -3t-5.5 1q0 9 6 31t6 51q0 16 -3 27.5t-11.5 21.5t-24 18.5t-40.5 19.5l1 1h118q1 0 3 -1q3 -1 6 -8zM113 440q3 7 6 8q2 1 3 1h118l2 -1q-25 -10 -40 -19t-23.5 -19t-11.5 -22t-3 -28
q0 -29 5 -51t5 -30q0 -1 -1 -1q-13 2 -25.5 14.5t-22 29t-15.5 35t-6 33.5q0 27 9 50zM430 439q0 -9 -12 -9l-285 -15q-6 2 -9.5 7.5t-3.5 12.5q0 5 3 9.5t10 4.5h285q12 0 12 -10zM331 647q0 -2 -2 -34.5l-5 -85l-7 -119l-8 -136l-7.5 -136l-6.5 -118.5l-5 -84t-2 -33
t-1 -2h-1h-11q-1 5 -3 38.5l-5 85.5l-6.5 117.5t-7.5 133l-7.5 132l-6.5 115.5t-5.5 83t-3.5 34q-3 6 -13 10.5t-15 6.5l35 1h85q2 0 4 -1q5 -3 5 -8z" />
    <glyph glyph-name="daggerdbl" unicode="&#x2021;" horiz-adv-x="549" 
d="M449 440q9 -23 9 -50q0 -32 -8.5 -52.5t-18.5 -33t-18.5 -18t-9.5 -5.5q-4 -2 -9.5 -3t-5.5 1q0 9 6 31t6 51q0 16 -3 27.5t-11.5 21.5t-24 18.5t-40.5 19.5l1 1h118q1 0 3 -1q3 -1 6 -8zM113 440q3 7 6 8q2 1 3 1h118l2 -1q-25 -10 -40 -19t-23.5 -19t-11.5 -22t-3 -28
q0 -29 5 -51t5 -30q0 -1 -1 -1q-13 2 -25.5 14.5t-22 29t-15.5 35t-6 33.5q0 27 9 50zM430 439q0 -9 -12 -9l-285 -15q-6 2 -9.5 7.5t-3.5 12.5q0 5 3 9.5t10 4.5h285q12 0 12 -10zM331 647q0 -2 -2 -34.5l-5 -85l-7 -119l-8 -136l-7.5 -136l-6.5 -118.5l-5 -84t-2 -33
t-1 -2h-1h-11q-1 5 -3 38.5l-5 85.5l-6.5 117.5t-7.5 133l-7.5 132l-6.5 115.5t-5.5 83t-3.5 34q-3 6 -13 10.5t-15 6.5l35 1h85q2 0 4 -1q5 -3 5 -8zM113 46q-9 22 -9 50q0 31 8.5 52t18.5 33.5t18.5 18t9.5 5.5q4 2 9.5 3t5.5 -1q0 -9 -6 -31t-6 -51q0 -16 3 -27.5
t11.5 -21.5t24 -19t40.5 -19l-1 -1h-118q-1 0 -3 1q-5 2 -6 8zM449 46q-3 -6 -6 -8q-2 -1 -3 -1h-118l-2 1q25 10 40 19t23.5 19t11.5 22t3 28q0 29 -5 51t-5 30q0 1 1 1q13 -2 25 -14.5t22 -29t16 -35t6 -33.5q0 -28 -9 -50zM132 47q0 9 12 9l285 15q6 -2 9.5 -7.5
t3.5 -12.5q0 -5 -3 -9.5t-10 -4.5h-285q-12 0 -12 10z" />
    <glyph glyph-name="less" unicode="&#x3c;" horiz-adv-x="383" 
d="M332 133q1 -1 1 -2t-0.5 -1t-0.5 -1v-1q-14 -10 -20 -15l-8.5 -7t-3 -2.5l-1.5 -1.5t-3 -1q-1 0 -2 1l1 -1l-23.5 21l-57.5 51.5l-72.5 64.5l-69.5 61q-5 5 -13 12t-8 9q2 1 3 2q2 2 3 2h2l52 -36l59.5 -41l59 -41l51 -36l36.5 -26.5t15 -10.5zM331 508q-1 -1 -27 -19.5
l-63.5 -45.5l-80.5 -57l-78 -53q-7 -5 -15 -9.5t-13 -4.5q-3 0 -3 1q-1 2 7 9.5l13 12.5l69.5 61.5l73 64.5l57.5 51l23 21l-1 -1q1 1 2 1t1.5 -0.5t1.5 -0.5l1.5 -1.5t3 -2.5l8.5 -7t20 -15q0 -1 0.5 -1.5t0.5 -1.5t-1 -2z" />
    <glyph glyph-name="greater" unicode="&#x3e;" horiz-adv-x="383" 
d="M51 133q1 0 15 10.5l36.5 26.5l51 36l59 41l59.5 41l52 36h2q0 -1 1 -1t1 -0.5t1 -0.5q1 -1 3 -2q0 -2 -8 -9t-13 -12l-69.5 -61l-72.5 -64.5l-57.5 -51.5l-23.5 -21l1 1q-1 -1 -2 -1q-2 0 -3 1l-1.5 1.5t-3 2.5l-9 7l-19.5 15q-1 0 -1 1v2zM52 508q-1 1 -1 2t0.5 1.5
t0.5 1.5l19.5 15l9 7t3 2.5l1.5 1.5q1 0 1.5 0.5t1.5 0.5t2 -1q-1 0 -1 1l23 -21l57.5 -51l73 -64.5l69.5 -61.5l13 -12.5t7 -9.5q0 -1 -3 -1q-5 0 -13 4.5t-15 9.5l-78 53l-80.5 57l-63.5 45.5t-27 19.5z" />
    <glyph glyph-name="asciicircum" unicode="^" horiz-adv-x="539" 
d="M82 351q-1 -1 -2 -1h-2q-1 0 -1 1l-15 19.5l-7 9t-2.5 3l-1.5 1.5t-1 3q0 1 1 2l-1 -1l21 23.5l51.5 57.5l64.5 72.5l61 69.5q5 5 12 13t9 8q1 -2 2 -3q0 -1 0.5 -1t0.5 -1t1 -1v-2l-36 -52l-41 -59.5l-41 -59l-36 -51l-26.5 -36.5t-10.5 -15zM457 352q-1 1 -19.5 27
l-45.5 63.5l-57 80.5l-53 78q-5 7 -9.5 15t-4.5 13q0 3 1 3q2 1 9.5 -7l12.5 -13l61.5 -69.5l64.5 -73l51 -57.5l21 -23l-1 1q1 -1 1 -2t-0.5 -1.5t-0.5 -1.5l-1.5 -1.5t-2.5 -3l-7 -9l-15 -19.5q-1 0 -1.5 -0.5t-1.5 -0.5t-2 1z" />
    <glyph glyph-name="grave" unicode="`" horiz-adv-x="408" 
d="M199 698q22 -9 42 -29q22 -22 39.5 -51.5t29.5 -56.5t19 -46l7 -19q1 -1 1 -2l-9 -9h-1h-2q-4 9 -16.5 27t-32.5 38q-12 12 -31 27t-42.5 26.5t-49 15.5t-50.5 -6v1l84 84q1 1 3 1q4 0 9 -1z" />
    <glyph glyph-name="_0014" horiz-adv-x="482" 
d="M301 588q0 6 5 8q2 1 5 1h120l1 -1l-4 -1.5t-9 -4t-10 -5.5t-6 -6q-1 -2 -3.5 -26t-5.5 -63l-6.5 -88.5l-7 -101.5l-7 -103.5l-6.5 -93.5t-4.5 -71t-2.5 -37v-1q0 -1 -1 -1h-11h-1q-1 0 -1 2q0 1 -2 26t-5 66.5l-7 94.5l-8 108l-8 108t-7.5 94.5t-5.5 67.5t-2 28zM73 587
q0 10 13 10h237q12 0 12 -10q0 -4 -3.5 -14t-8.5 -10l-237 15q-13 0 -13 9zM72 586q1 7 5 9q2 1 4 1h119l2 -1l-15.5 -6.5t-12.5 -11.5q-14 -57 -20.5 -106t-6.5 -91q0 -74 15.5 -129t39.5 -95t51 -67t51 -45l39.5 -29.5t15.5 -20.5q0 -1 -1 -1h-11q-1 2 -23 12t-55 31
t-71.5 53.5t-71 80t-54.5 110.5t-22 145q0 74 22 161z" />
    <glyph glyph-name="parenleft" unicode="(" horiz-adv-x="357" 
d="M178 603q5 5 7 6l2 2h118h1l1 -1q-6 -3 -11 -6q-5 -2 -10 -5t-7 -5q-33 -29 -60.5 -67t-47.5 -81t-32 -89t-14 -89q-4 -72 3.5 -130t21 -104t30 -80.5t31 -59t24.5 -40t10 -24.5v-3q0 -1 -1 -2h-11q-1 -1 -1 0q-1 0 -1 4l-16.5 19.5t-39.5 54.5t-49 84t-45.5 108.5
t-27.5 128.5t5 144q6 34 18.5 67.5t29 64t35.5 57t37 46.5z" />
    <glyph glyph-name="parenright" unicode=")" horiz-adv-x="357" 
d="M179 603q18 -20 37 -46.5t35.5 -57t29 -64t18.5 -67.5q13 -75 5 -144t-27.5 -128.5t-45.5 -108.5t-49 -84t-39.5 -54.5l-16.5 -19.5q0 -1 -0.5 -1.5t-0.5 -1.5v-1q-1 -1 -1 0h-11h-1v2v3q0 9 10 24.5t24.5 40t31 59t30 80.5t21 104t3.5 130q-2 43 -14 89t-32 89t-47.5 81
t-60.5 67q-6 4 -17 10q-5 3 -11 6l1 1h1h118q0 -1 2 -2q1 -1 3 -2.5t4 -3.5z" />
    <glyph glyph-name="braceright" unicode="}" 
 />
    <glyph glyph-name="braceleft" unicode="{" 
 />
    <glyph glyph-name="bracketleft" unicode="[" 
 />
    <glyph glyph-name="bracketright" unicode="]" 
 />
    </font>
</defs>
</svg>
